M48
METRIC,LZ,000.000
;FILE_FORMAT=3:3
;TYPE=PLATED
;Layer: PTH_Through
;EasyEDA v6.5.40, 2025-04-08 18:07:50
;f69cb92f1d464a00b3157a5873f4f14e,9a3801b0f1a945d2957c124233de6e5e,10
;Gerber Generator version 0.2
;Holesize 1 = 0.889 mm
T01C0.889
;Holesize 2 = 0.914 mm
T02C0.914
;Holesize 3 = 0.915 mm
T03C0.915
;Holesize 4 = 1.301 mm
T04C1.301
;Holesize 5 = 3.150 mm
T05C3.150
;Holesize 6 = 3.201 mm
T06C3.201
%
G05
G90
T01
X011811Y-004826
X011811Y-002286
X011811Y000254
X011811Y002794
X011811Y005334
X040132Y-011176
X037592Y-011176
X035052Y-011176
X026670Y-009652
X024130Y-009652
X021590Y-009652
X019050Y-009652
X016510Y-009652
X011684Y011049
X011684Y013589
X011684Y016129
X011684Y018669
X011684Y021209
X011684Y023749
X011684Y026289
X011684Y028829
X011684Y031369
X011684Y033909
X011684Y036449
X011684Y038989
X011684Y041529
X011684Y044069
X011684Y046609
X023749Y009652
X026289Y009652
X028829Y009652
X031369Y009652
X033909Y009652
X036449Y009651
T02
X047720Y032036
T03
X047720Y029496
X047720Y026956
X047720Y024416
X047720Y021876
X047371Y015240
X047371Y012700
X047371Y010160
X047371Y007620
X048260Y037973
X048260Y040513
X048260Y043053
X048260Y045593
X020571Y045974G85X020577Y045974
X020571Y043434G85X020577Y043434
X020571Y040894G85X020577Y040894
X020571Y038354G85X020577Y038354
X020571Y035814G85X020577Y035814
X020571Y033274G85X020577Y033274
X020571Y030734G85X020577Y030734
X020571Y028194G85X020577Y028194
X020571Y025654G85X020577Y025654
X020571Y023114G85X020577Y023114
X020571Y020574G85X020577Y020574
X020571Y018034G85X020577Y018034
X038351Y018034G85X038357Y018034
X038351Y020574G85X038357Y020574
X038351Y023114G85X038357Y023114
X038351Y025654G85X038357Y025654
X038351Y028194G85X038357Y028194
X038351Y030734G85X038357Y030734
X038351Y033274G85X038357Y033274
X038351Y035814G85X038357Y035814
X038351Y038354G85X038357Y038354
X038351Y040894G85X038357Y040894
X038351Y043434G85X038357Y043434
X038351Y045974G85X038357Y045974
X048768Y-011176
X043815Y-011176
X044958Y017145
X054610Y017145
X031750Y-005207
X041402Y-005207
X015667Y046609
X015731Y044136
T04
X051435Y-006314
X051435Y-001306
T05
X029715Y018923G85X029721Y018923
T06
X029461Y045085G85X029467Y045085
M30
