G04 Layer: BottomSolderMaskLayer*
G04 EasyEDA v6.5.40, 2025-04-08 18:07:50*
G04 f69cb92f1d464a00b3157a5873f4f14e,9a3801b0f1a945d2957c124233de6e5e,10*
G04 Gerber Generator version 0.2*
G04 Scale: 100 percent, Rotated: No, Reflected: No *
G04 Dimensions in millimeters *
G04 leading zeros omitted , absolute positions ,4 integer and 5 decimal *
%FSLAX45Y45*%
%MOMM*%

%AMMACRO1*1,1,$1,$2,$3*1,1,$1,$4,$5*1,1,$1,0-$2,0-$3*1,1,$1,0-$4,0-$5*20,1,$1,$2,$3,$4,$5,0*20,1,$1,$4,$5,0-$2,0-$3,0*20,1,$1,0-$2,0-$3,0-$4,0-$5,0*20,1,$1,0-$4,0-$5,$2,$3,0*4,1,4,$2,$3,$4,$5,0-$2,0-$3,0-$4,0-$5,$2,$3,0*%
%ADD10C,1.6764*%
%ADD11MACRO1,0.1016X0.7874X0.7874X0.7874X-0.7874*%
%ADD12MACRO1,0.1016X-0.7874X0.7874X0.7874X0.7874*%
%ADD13C,2.2032*%
%ADD14C,1.6256*%
%ADD15C,2.1016*%
%ADD16MACRO1,0.1016X0.7874X-0.7874X-0.7874X-0.7874*%
%ADD17C,3.9116*%

%LPD*%
D10*
G01*
X1181100Y-482600D03*
G01*
X1181100Y-228600D03*
G01*
X1181100Y25400D03*
G01*
X1181100Y279400D03*
D11*
G01*
X1181100Y533400D03*
D10*
G01*
X4013200Y-1117600D03*
G01*
X3759200Y-1117600D03*
D12*
G01*
X3505200Y-1117600D03*
D10*
G01*
X2667000Y-965200D03*
G01*
X2413000Y-965200D03*
G01*
X2159000Y-965200D03*
G01*
X1905000Y-965200D03*
D12*
G01*
X1651000Y-965200D03*
D10*
G01*
X1168400Y1104900D03*
G01*
X1168400Y1358900D03*
G01*
X1168400Y1612900D03*
G01*
X1168400Y1866900D03*
G01*
X1168400Y2120900D03*
G01*
X1168400Y2374900D03*
G01*
X1168400Y2628900D03*
G01*
X1168400Y2882900D03*
G01*
X1168400Y3136900D03*
G01*
X1168400Y3390900D03*
G01*
X1168400Y3644900D03*
G01*
X1168400Y3898900D03*
G01*
X1168400Y4152900D03*
G01*
X1168400Y4406900D03*
D11*
G01*
X1168400Y4660900D03*
D13*
G01*
X4771999Y2949600D03*
G01*
X4771999Y2695600D03*
G01*
X4771999Y2441600D03*
G01*
X4771999Y2187600D03*
G01*
X4771999Y3203600D03*
D14*
G01*
X4737100Y1524000D03*
G01*
X4737100Y1270000D03*
G01*
X4737100Y1016000D03*
G01*
X4737100Y762000D03*
D15*
G01*
X5143500Y-631444D03*
G01*
X5143500Y-130555D03*
D10*
G01*
X2374925Y965200D03*
G01*
X2628925Y965200D03*
G01*
X2882925Y965200D03*
G01*
X3136925Y965200D03*
G01*
X3390925Y965200D03*
D16*
G01*
X3644897Y965192D03*
D14*
G01*
X4826000Y3797300D03*
G01*
X4826000Y4051300D03*
G01*
X4826000Y4305300D03*
G01*
X4826000Y4559300D03*
G01*
X2057400Y4597400D03*
G01*
X2057400Y4343400D03*
G01*
X2057400Y4089400D03*
G01*
X2057400Y3835400D03*
G01*
X2057400Y3581400D03*
G01*
X2057400Y3327400D03*
G01*
X2057400Y3073400D03*
G01*
X2057400Y2819400D03*
G01*
X2057400Y2565400D03*
G01*
X2057400Y2311400D03*
G01*
X2057400Y2057400D03*
G01*
X2057400Y1803400D03*
G01*
X3835400Y1803400D03*
G01*
X3835400Y2057400D03*
G01*
X3835400Y2311400D03*
G01*
X3835400Y2565400D03*
G01*
X3835400Y2819400D03*
G01*
X3835400Y3073400D03*
G01*
X3835400Y3327400D03*
G01*
X3835400Y3581400D03*
G01*
X3835400Y3835400D03*
G01*
X3835400Y4089400D03*
G01*
X3835400Y4343400D03*
G01*
X3835400Y4597400D03*
D17*
G01*
X2946400Y4508500D03*
G01*
X2971800Y1892300D03*
D14*
G01*
X4876800Y-1117600D03*
G01*
X4381500Y-1117600D03*
G01*
X4495800Y1714500D03*
G01*
X5461000Y1714500D03*
G01*
X3175000Y-520700D03*
G01*
X4140200Y-520700D03*
G01*
X1566699Y4660900D03*
G01*
X1573095Y4413643D03*
M02*
