G04 Layer: BottomLayer*
G04 EasyEDA v6.5.40, 2025-04-08 18:07:50*
G04 f69cb92f1d464a00b3157a5873f4f14e,9a3801b0f1a945d2957c124233de6e5e,10*
G04 Gerber Generator version 0.2*
G04 Scale: 100 percent, Rotated: No, Reflected: No *
G04 Dimensions in millimeters *
G04 leading zeros omitted , absolute positions ,4 integer and 5 decimal *
%FSLAX45Y45*%
%MOMM*%

%ADD10C,0.2032*%
%ADD11C,0.5000*%
%ADD12C,1.5748*%
%ADD13R,1.5748X1.5748*%
%ADD14C,2.0000*%
%ADD15C,1.5240*%
%ADD16C,3.8100*%
%ADD17C,0.0106*%

%LPD*%
D10*
X823518Y-80881D02*
G01*
X814428Y-76337D01*
X805337Y-67246D01*
X800790Y-58153D01*
X800790Y-39971D01*
X805337Y-30881D01*
X814428Y-21790D01*
X823518Y-17246D01*
X837153Y-12700D01*
X859881Y-12700D01*
X873518Y-17246D01*
X882609Y-21790D01*
X891700Y-30881D01*
X896246Y-39971D01*
X896246Y-58153D01*
X891700Y-67246D01*
X882609Y-76337D01*
X873518Y-80881D01*
X859881Y-80881D01*
X859881Y-58153D02*
G01*
X859881Y-80881D01*
X800790Y-110881D02*
G01*
X896246Y-110881D01*
X800790Y-110881D02*
G01*
X800790Y-151790D01*
X805337Y-165427D01*
X809881Y-169971D01*
X818972Y-174518D01*
X832609Y-174518D01*
X841700Y-169971D01*
X846246Y-165427D01*
X850790Y-151790D01*
X850790Y-110881D01*
X814428Y-268152D02*
G01*
X805337Y-259062D01*
X800790Y-245427D01*
X800790Y-227246D01*
X805337Y-213608D01*
X814428Y-204518D01*
X823518Y-204518D01*
X832609Y-209062D01*
X837153Y-213608D01*
X841700Y-222699D01*
X850790Y-249971D01*
X855337Y-259062D01*
X859881Y-263608D01*
X868972Y-268152D01*
X882609Y-268152D01*
X891700Y-259062D01*
X896246Y-245427D01*
X896246Y-227246D01*
X891700Y-213608D01*
X882609Y-204518D01*
X1943100Y-661090D02*
G01*
X1943100Y-756546D01*
X1943100Y-756546D02*
G01*
X1888553Y-756546D01*
X1858553Y-661090D02*
G01*
X1858553Y-756546D01*
X1858553Y-661090D02*
G01*
X1817646Y-661090D01*
X1804009Y-665637D01*
X1799462Y-670181D01*
X1794918Y-679272D01*
X1794918Y-688362D01*
X1799462Y-697453D01*
X1804009Y-702000D01*
X1817646Y-706546D01*
X1858553Y-706546D01*
X1826737Y-706546D02*
G01*
X1794918Y-756546D01*
X1737647Y-661090D02*
G01*
X1751281Y-665637D01*
X1760372Y-679272D01*
X1764919Y-702000D01*
X1764919Y-715637D01*
X1760372Y-738362D01*
X1751281Y-752000D01*
X1737647Y-756546D01*
X1728553Y-756546D01*
X1714919Y-752000D01*
X1705828Y-738362D01*
X1701281Y-715637D01*
X1701281Y-702000D01*
X1705828Y-679272D01*
X1714919Y-665637D01*
X1728553Y-661090D01*
X1737647Y-661090D01*
X1666737Y-683818D02*
G01*
X1666737Y-679272D01*
X1662191Y-670181D01*
X1657647Y-665637D01*
X1648553Y-661090D01*
X1630372Y-661090D01*
X1621281Y-665637D01*
X1616737Y-670181D01*
X1612191Y-679272D01*
X1612191Y-688362D01*
X1616737Y-697453D01*
X1625828Y-711090D01*
X1671281Y-756546D01*
X1607647Y-756546D01*
X4064000Y-1283390D02*
G01*
X4064000Y-1378846D01*
X4064000Y-1283390D02*
G01*
X4023090Y-1283390D01*
X4009453Y-1287937D01*
X4004909Y-1292481D01*
X4000362Y-1301572D01*
X4000362Y-1310662D01*
X4004909Y-1319753D01*
X4009453Y-1324300D01*
X4023090Y-1328846D01*
X4064000Y-1328846D01*
X4032181Y-1328846D02*
G01*
X4000362Y-1378846D01*
X3915818Y-1283390D02*
G01*
X3961272Y-1283390D01*
X3965818Y-1324300D01*
X3961272Y-1319753D01*
X3947637Y-1315209D01*
X3934000Y-1315209D01*
X3920363Y-1319753D01*
X3911272Y-1328846D01*
X3906728Y-1342481D01*
X3906728Y-1351572D01*
X3911272Y-1365209D01*
X3920363Y-1374300D01*
X3934000Y-1378846D01*
X3947637Y-1378846D01*
X3961272Y-1374300D01*
X3965818Y-1369753D01*
X3970362Y-1360662D01*
X3876728Y-1283390D02*
G01*
X3840363Y-1378846D01*
X3804000Y-1283390D02*
G01*
X3840363Y-1378846D01*
X3705819Y-1306118D02*
G01*
X3710363Y-1297028D01*
X3719454Y-1287937D01*
X3728547Y-1283390D01*
X3746728Y-1283390D01*
X3755819Y-1287937D01*
X3764909Y-1297028D01*
X3769453Y-1306118D01*
X3774000Y-1319753D01*
X3774000Y-1342481D01*
X3769453Y-1356118D01*
X3764909Y-1365209D01*
X3755819Y-1374300D01*
X3746728Y-1378846D01*
X3728547Y-1378846D01*
X3719454Y-1374300D01*
X3710363Y-1365209D01*
X3705819Y-1356118D01*
X2730500Y570809D02*
G01*
X2730500Y475353D01*
X2730500Y570809D02*
G01*
X2694137Y475353D01*
X2657772Y570809D02*
G01*
X2694137Y475353D01*
X2657772Y570809D02*
G01*
X2657772Y475353D01*
X2627772Y570809D02*
G01*
X2627772Y475353D01*
X2627772Y570809D02*
G01*
X2586863Y570809D01*
X2573228Y566262D01*
X2568681Y561718D01*
X2564137Y552627D01*
X2564137Y538990D01*
X2568681Y529899D01*
X2573228Y525353D01*
X2586863Y520809D01*
X2627772Y520809D01*
X2534137Y570809D02*
G01*
X2534137Y502627D01*
X2529591Y488990D01*
X2520500Y479899D01*
X2506863Y475353D01*
X2497772Y475353D01*
X2484137Y479899D01*
X2475047Y488990D01*
X2470500Y502627D01*
X2470500Y570809D01*
X5207690Y1576537D02*
G01*
X5303146Y1612900D01*
X5207690Y1576537D02*
G01*
X5303146Y1540172D01*
X5271328Y1599262D02*
G01*
X5271328Y1553809D01*
X5207690Y1510172D02*
G01*
X5303146Y1510172D01*
X5207690Y1446537D02*
G01*
X5303146Y1446537D01*
X5253146Y1510172D02*
G01*
X5253146Y1446537D01*
X5207690Y1384719D02*
G01*
X5303146Y1384719D01*
X5207690Y1416537D02*
G01*
X5207690Y1352900D01*
X5230418Y1318353D02*
G01*
X5225872Y1318353D01*
X5216781Y1313809D01*
X5212237Y1309263D01*
X5207690Y1300172D01*
X5207690Y1281991D01*
X5212237Y1272900D01*
X5216781Y1268354D01*
X5225872Y1263810D01*
X5234962Y1263810D01*
X5244053Y1268354D01*
X5257690Y1277447D01*
X5303146Y1322900D01*
X5303146Y1259263D01*
X5207690Y1201991D02*
G01*
X5212237Y1215628D01*
X5225872Y1224719D01*
X5248600Y1229263D01*
X5262237Y1229263D01*
X5284962Y1224719D01*
X5298600Y1215628D01*
X5303146Y1201991D01*
X5303146Y1192900D01*
X5298600Y1179263D01*
X5284962Y1170172D01*
X5262237Y1165628D01*
X5248600Y1165628D01*
X5225872Y1170172D01*
X5212237Y1179263D01*
X5207690Y1192900D01*
X5207690Y1201991D01*
X5221328Y1094719D02*
G01*
X5303146Y1094719D01*
X5262237Y1135628D02*
G01*
X5262237Y1053810D01*
X5207690Y1023810D02*
G01*
X5303146Y1023810D01*
X5207690Y1023810D02*
G01*
X5207690Y982901D01*
X5212237Y969263D01*
X5216781Y964719D01*
X5225872Y960173D01*
X5234962Y960173D01*
X5244053Y964719D01*
X5248600Y969263D01*
X5253146Y982901D01*
X5253146Y1023810D02*
G01*
X5253146Y982901D01*
X5257690Y969263D01*
X5262237Y964719D01*
X5271328Y960173D01*
X5284962Y960173D01*
X5294053Y964719D01*
X5298600Y969263D01*
X5303146Y982901D01*
X5303146Y1023810D01*
X5207690Y930173D02*
G01*
X5303146Y930173D01*
X5207690Y930173D02*
G01*
X5303146Y893810D01*
X5207690Y857448D02*
G01*
X5303146Y893810D01*
X5207690Y857448D02*
G01*
X5303146Y857448D01*
X5207690Y827448D02*
G01*
X5303146Y827448D01*
X5207690Y827448D02*
G01*
X5207690Y786538D01*
X5212237Y772901D01*
X5216781Y768355D01*
X5225872Y763811D01*
X5239509Y763811D01*
X5248600Y768355D01*
X5253146Y772901D01*
X5257690Y786538D01*
X5257690Y827448D01*
X5230418Y729264D02*
G01*
X5225872Y729264D01*
X5216781Y724720D01*
X5212237Y720173D01*
X5207690Y711083D01*
X5207690Y692901D01*
X5212237Y683811D01*
X5216781Y679264D01*
X5225872Y674720D01*
X5234962Y674720D01*
X5244053Y679264D01*
X5257690Y688355D01*
X5303146Y733811D01*
X5303146Y670173D01*
X5207690Y617448D02*
G01*
X5212237Y631083D01*
X5221328Y635629D01*
X5230418Y635629D01*
X5239509Y631083D01*
X5244053Y621992D01*
X5248600Y603811D01*
X5253146Y590174D01*
X5262237Y581083D01*
X5271328Y576539D01*
X5284962Y576539D01*
X5294053Y581083D01*
X5298600Y585630D01*
X5303146Y599264D01*
X5303146Y617448D01*
X5298600Y631083D01*
X5294053Y635629D01*
X5284962Y640173D01*
X5271328Y640173D01*
X5262237Y635629D01*
X5253146Y626539D01*
X5248600Y612902D01*
X5244053Y594720D01*
X5239509Y585630D01*
X5230418Y581083D01*
X5221328Y581083D01*
X5212237Y585630D01*
X5207690Y599264D01*
X5207690Y617448D01*
X5207690Y519264D02*
G01*
X5212237Y532902D01*
X5225872Y541992D01*
X5248600Y546539D01*
X5262237Y546539D01*
X5284962Y541992D01*
X5298600Y532902D01*
X5303146Y519264D01*
X5303146Y510174D01*
X5298600Y496539D01*
X5284962Y487448D01*
X5262237Y482902D01*
X5248600Y482902D01*
X5225872Y487448D01*
X5212237Y496539D01*
X5207690Y510174D01*
X5207690Y519264D01*
X5471718Y2878218D02*
G01*
X5462628Y2882762D01*
X5453537Y2891853D01*
X5448990Y2900946D01*
X5448990Y2919128D01*
X5453537Y2928218D01*
X5462628Y2937309D01*
X5471718Y2941853D01*
X5485353Y2946400D01*
X5508081Y2946400D01*
X5521718Y2941853D01*
X5530809Y2937309D01*
X5539900Y2928218D01*
X5544446Y2919128D01*
X5544446Y2900946D01*
X5539900Y2891853D01*
X5530809Y2882762D01*
X5521718Y2878218D01*
X5508081Y2878218D01*
X5508081Y2900946D02*
G01*
X5508081Y2878218D01*
X5448990Y2848218D02*
G01*
X5494446Y2811853D01*
X5544446Y2811853D01*
X5448990Y2775491D02*
G01*
X5494446Y2811853D01*
X5503537Y2745491D02*
G01*
X5503537Y2663672D01*
X5471718Y2629128D02*
G01*
X5467172Y2629128D01*
X5458081Y2624581D01*
X5453537Y2620037D01*
X5448990Y2610947D01*
X5448990Y2592763D01*
X5453537Y2583672D01*
X5458081Y2579128D01*
X5467172Y2574582D01*
X5476262Y2574582D01*
X5485353Y2579128D01*
X5498990Y2588219D01*
X5544446Y2633672D01*
X5544446Y2570038D01*
X5448990Y2476400D02*
G01*
X5544446Y2521854D01*
X5448990Y2540038D02*
G01*
X5448990Y2476400D01*
X5467172Y2446401D02*
G01*
X5462628Y2437310D01*
X5448990Y2423673D01*
X5544446Y2423673D01*
X5423590Y4318000D02*
G01*
X5519046Y4318000D01*
X5423590Y4318000D02*
G01*
X5423590Y4277090D01*
X5428137Y4263453D01*
X5432681Y4258909D01*
X5441772Y4254362D01*
X5450862Y4254362D01*
X5459953Y4258909D01*
X5464500Y4263453D01*
X5469046Y4277090D01*
X5469046Y4318000D02*
G01*
X5469046Y4277090D01*
X5473590Y4263453D01*
X5478137Y4258909D01*
X5487228Y4254362D01*
X5500862Y4254362D01*
X5509953Y4258909D01*
X5514500Y4263453D01*
X5519046Y4277090D01*
X5519046Y4318000D01*
X5423590Y4224362D02*
G01*
X5519046Y4224362D01*
X5423590Y4224362D02*
G01*
X5519046Y4188000D01*
X5423590Y4151637D02*
G01*
X5519046Y4188000D01*
X5423590Y4151637D02*
G01*
X5519046Y4151637D01*
X5423590Y4121637D02*
G01*
X5519046Y4121637D01*
X5423590Y4121637D02*
G01*
X5423590Y4080728D01*
X5428137Y4067091D01*
X5432681Y4062547D01*
X5441772Y4058000D01*
X5455409Y4058000D01*
X5464500Y4062547D01*
X5469046Y4067091D01*
X5473590Y4080728D01*
X5473590Y4121637D01*
X5441772Y4028000D02*
G01*
X5437228Y4018909D01*
X5423590Y4005272D01*
X5519046Y4005272D01*
X5423590Y3952547D02*
G01*
X5428137Y3966182D01*
X5437228Y3970728D01*
X5446318Y3970728D01*
X5455409Y3966182D01*
X5459953Y3957091D01*
X5464500Y3938910D01*
X5469046Y3925272D01*
X5478137Y3916182D01*
X5487228Y3911638D01*
X5500862Y3911638D01*
X5509953Y3916182D01*
X5514500Y3920728D01*
X5519046Y3934363D01*
X5519046Y3952547D01*
X5514500Y3966182D01*
X5509953Y3970728D01*
X5500862Y3975272D01*
X5487228Y3975272D01*
X5478137Y3970728D01*
X5469046Y3961637D01*
X5464500Y3948000D01*
X5459953Y3929819D01*
X5455409Y3920728D01*
X5446318Y3916182D01*
X5437228Y3916182D01*
X5428137Y3920728D01*
X5423590Y3934363D01*
X5423590Y3952547D01*
X5423590Y3854363D02*
G01*
X5428137Y3868000D01*
X5441772Y3877091D01*
X5464500Y3881638D01*
X5478137Y3881638D01*
X5500862Y3877091D01*
X5514500Y3868000D01*
X5519046Y3854363D01*
X5519046Y3845272D01*
X5514500Y3831638D01*
X5500862Y3822547D01*
X5478137Y3818001D01*
X5464500Y3818001D01*
X5441772Y3822547D01*
X5428137Y3831638D01*
X5423590Y3845272D01*
X5423590Y3854363D01*
X3257481Y2755209D02*
G01*
X3257481Y2659753D01*
X3289300Y2755209D02*
G01*
X3225662Y2755209D01*
X3127481Y2732481D02*
G01*
X3132028Y2741571D01*
X3141118Y2750662D01*
X3150209Y2755209D01*
X3168390Y2755209D01*
X3177481Y2750662D01*
X3186572Y2741571D01*
X3191118Y2732481D01*
X3195662Y2718846D01*
X3195662Y2696118D01*
X3191118Y2682481D01*
X3186572Y2673390D01*
X3177481Y2664299D01*
X3168390Y2659753D01*
X3150209Y2659753D01*
X3141118Y2664299D01*
X3132028Y2673390D01*
X3127481Y2682481D01*
X3061119Y2755209D02*
G01*
X3097481Y2659753D01*
X3061119Y2755209D02*
G01*
X3024753Y2659753D01*
X3083847Y2691571D02*
G01*
X3038391Y2691571D01*
X2935663Y2723390D02*
G01*
X2940210Y2709753D01*
X2949300Y2700662D01*
X2962937Y2696118D01*
X2967481Y2696118D01*
X2981119Y2700662D01*
X2990209Y2709753D01*
X2994753Y2723390D01*
X2994753Y2727937D01*
X2990209Y2741571D01*
X2981119Y2750662D01*
X2967481Y2755209D01*
X2962937Y2755209D01*
X2949300Y2750662D01*
X2940210Y2741571D01*
X2935663Y2723390D01*
X2935663Y2700662D01*
X2940210Y2677937D01*
X2949300Y2664299D01*
X2962937Y2659753D01*
X2972028Y2659753D01*
X2985663Y2664299D01*
X2990209Y2673390D01*
X2851119Y2755209D02*
G01*
X2896572Y2755209D01*
X2901119Y2714299D01*
X2896572Y2718846D01*
X2882938Y2723390D01*
X2869300Y2723390D01*
X2855663Y2718846D01*
X2846572Y2709753D01*
X2842028Y2696118D01*
X2842028Y2687027D01*
X2846572Y2673390D01*
X2855663Y2664299D01*
X2869300Y2659753D01*
X2882938Y2659753D01*
X2896572Y2664299D01*
X2901119Y2668846D01*
X2905663Y2677937D01*
X2766573Y2755209D02*
G01*
X2812028Y2691571D01*
X2743847Y2691571D01*
X2766573Y2755209D02*
G01*
X2766573Y2659753D01*
X2691119Y2755209D02*
G01*
X2704754Y2750662D01*
X2709301Y2741571D01*
X2709301Y2732481D01*
X2704754Y2723390D01*
X2695663Y2718846D01*
X2677482Y2714299D01*
X2663847Y2709753D01*
X2654754Y2700662D01*
X2650210Y2691571D01*
X2650210Y2677937D01*
X2654754Y2668846D01*
X2659301Y2664299D01*
X2672938Y2659753D01*
X2691119Y2659753D01*
X2704754Y2664299D01*
X2709301Y2668846D01*
X2713847Y2677937D01*
X2713847Y2691571D01*
X2709301Y2700662D01*
X2700210Y2709753D01*
X2686573Y2714299D01*
X2668391Y2718846D01*
X2659301Y2723390D01*
X2654754Y2732481D01*
X2654754Y2741571D01*
X2659301Y2750662D01*
X2672938Y2755209D01*
X2691119Y2755209D01*
X2583848Y2755209D02*
G01*
X2620210Y2659753D01*
X2583848Y2755209D02*
G01*
X2547482Y2659753D01*
X2606573Y2691571D02*
G01*
X2561120Y2691571D01*
D11*
X2057400Y2565400D02*
G01*
X2527300Y2095500D01*
X2527300Y1320800D01*
X2882917Y965194D01*
X1168400Y3390900D02*
G01*
X990600Y3175000D01*
X977900Y482600D01*
X1181100Y279400D01*
X1168400Y3644900D02*
G01*
X876300Y3352800D01*
X876300Y114300D01*
X965200Y25400D01*
X1181100Y25400D01*
X1181100Y-482600D02*
G01*
X1460500Y-203200D01*
X1460500Y2336800D01*
X1168400Y2628900D01*
X2413000Y-965200D02*
G01*
X1625600Y-215900D01*
X1612900Y2273300D01*
X1612900Y2463800D01*
X1168400Y2882900D01*
X1168400Y3136900D02*
G01*
X1790700Y2514600D01*
X1790700Y-88900D01*
X2667000Y-965200D01*
X1168400Y3898900D02*
G01*
X1955800Y3911600D01*
X2057400Y3835400D01*
X1573095Y4413643D02*
G01*
X1930400Y4419600D01*
X2057400Y4343400D01*
X1168400Y4406900D02*
G01*
X1573095Y4413643D01*
X1168400Y4660900D02*
G01*
X1566699Y4660900D01*
X3835400Y4343400D02*
G01*
X4279900Y4343400D01*
X4826000Y3797300D01*
X3835400Y4597400D02*
G01*
X4279900Y4597400D01*
X4826000Y4051300D01*
X4826000Y4559300D02*
G01*
X4559300Y4826000D01*
X2247900Y4826000D01*
X2057400Y4724400D01*
X2057400Y4597400D01*
X1651000Y-965200D02*
G01*
X1181100Y-965200D01*
X914400Y-698500D01*
X914400Y-495300D01*
X1181100Y-228600D01*
X1905000Y-965200D02*
G01*
X1905000Y-1155700D01*
X2006600Y-1257300D01*
X3302000Y-1257300D01*
X3505200Y-1117600D01*
X1651000Y-965200D02*
G01*
X1651000Y-1181100D01*
X1828800Y-1358900D01*
X3517900Y-1358900D01*
X3759200Y-1117600D01*
X4013200Y-1117600D02*
G01*
X4381500Y-1117600D01*
X4876800Y-1117600D02*
G01*
X4876800Y-898144D01*
X5143500Y-631444D01*
X4140200Y-520700D02*
G01*
X4753356Y-520700D01*
X5143500Y-130555D01*
X4737100Y1016000D02*
G01*
X4495800Y1231900D01*
X4495800Y1473200D01*
X4495800Y1714500D01*
X4495800Y1714500D02*
G01*
X4495800Y1714500D01*
X5067300Y2006600D01*
X5080000Y2768600D01*
X4771897Y2949702D01*
X3835400Y2311400D02*
G01*
X4114800Y2120900D01*
X4114800Y1155700D01*
X4889500Y381000D01*
X4991100Y381000D01*
X4991100Y1016000D01*
X4737100Y1270000D01*
X4737100Y762000D02*
G01*
X4305300Y1168400D01*
X4305300Y2247900D01*
X3835400Y2565400D01*
X3835400Y3835400D02*
G01*
X4279900Y3390900D01*
X4279900Y2946400D01*
X4508500Y2717800D01*
X4771999Y2441600D01*
X3835400Y4089400D02*
G01*
X4432300Y3492500D01*
X4432300Y3022600D01*
X4432300Y3022600D01*
X4771999Y2695600D01*
X1168400Y4152900D02*
G01*
X1625600Y4160520D01*
X1943100Y4165600D01*
X2057400Y4089400D01*
X2057400Y2311400D02*
G01*
X2387600Y1981200D01*
X2400300Y1320800D01*
X2184400Y1130300D01*
X2184400Y1079500D01*
X2184400Y838200D01*
X2298700Y723900D01*
X2895625Y723900D01*
X3136917Y965194D01*
X4140200Y-520700D02*
G01*
X4140200Y-736600D01*
X3759200Y-1117600D01*
X5461000Y1714500D02*
G01*
X5461000Y186944D01*
X5143500Y-130555D01*
X4737100Y1524000D02*
G01*
X4953000Y1536700D01*
X5207000Y1752600D01*
X5232400Y2921000D01*
X4771897Y3203702D01*
X4826000Y4305300D02*
G01*
X5041900Y4064000D01*
X5041900Y3708400D01*
X4826000Y3581400D01*
X4546600Y3416300D01*
X4546600Y3162300D01*
X4771897Y2949702D01*
X4771999Y3203600D02*
G01*
X4775200Y3390900D01*
X5181600Y3644900D01*
X5168900Y4152900D01*
X4826000Y4559300D01*
X3644900Y965200D02*
G01*
X3644900Y393700D01*
X3505200Y254000D01*
X3505200Y-1117600D01*
X3390925Y965200D02*
G01*
X3390925Y-304774D01*
X3175000Y-520700D01*
X3390925Y965200D02*
G01*
X3390925Y3009874D01*
X2057400Y4343400D01*
X1566699Y4660900D02*
G01*
X1905000Y4660900D01*
X2057400Y4597400D01*
X3644900Y965200D02*
G01*
X3644900Y3009900D01*
X2057400Y4597400D01*
D12*
G01*
X1181100Y-482600D03*
G01*
X1181100Y-228600D03*
G01*
X1181100Y25400D03*
G01*
X1181100Y279400D03*
D13*
G01*
X1181100Y533400D03*
D12*
G01*
X4013200Y-1117600D03*
G01*
X3759200Y-1117600D03*
D13*
G01*
X3505200Y-1117600D03*
D12*
G01*
X2667000Y-965200D03*
G01*
X2413000Y-965200D03*
G01*
X2159000Y-965200D03*
G01*
X1905000Y-965200D03*
D13*
G01*
X1651000Y-965200D03*
D12*
G01*
X1168400Y1104900D03*
G01*
X1168400Y1358900D03*
G01*
X1168400Y1612900D03*
G01*
X1168400Y1866900D03*
G01*
X1168400Y2120900D03*
G01*
X1168400Y2374900D03*
G01*
X1168400Y2628900D03*
G01*
X1168400Y2882900D03*
G01*
X1168400Y3136900D03*
G01*
X1168400Y3390900D03*
G01*
X1168400Y3644900D03*
G01*
X1168400Y3898900D03*
G01*
X1168400Y4152900D03*
G01*
X1168400Y4406900D03*
D13*
G01*
X1168400Y4660900D03*
D14*
G01*
X4771999Y2949600D03*
G01*
X4771999Y2695600D03*
G01*
X4771999Y2441600D03*
G01*
X4771999Y2187600D03*
G01*
X4771999Y3203600D03*
D15*
G01*
X4737100Y1524000D03*
G01*
X4737100Y1270000D03*
G01*
X4737100Y1016000D03*
G01*
X4737100Y762000D03*
D14*
G01*
X5143500Y-631444D03*
G01*
X5143500Y-130555D03*
D12*
G01*
X2374925Y965200D03*
G01*
X2628925Y965200D03*
G01*
X2882925Y965200D03*
G01*
X3136925Y965200D03*
G01*
X3390925Y965200D03*
D13*
G01*
X3644900Y965200D03*
D15*
G01*
X4826000Y3797300D03*
G01*
X4826000Y4051300D03*
G01*
X4826000Y4305300D03*
G01*
X4826000Y4559300D03*
G01*
X2057400Y4597400D03*
G01*
X2057400Y4343400D03*
G01*
X2057400Y4089400D03*
G01*
X2057400Y3835400D03*
G01*
X2057400Y3581400D03*
G01*
X2057400Y3327400D03*
G01*
X2057400Y3073400D03*
G01*
X2057400Y2819400D03*
G01*
X2057400Y2565400D03*
G01*
X2057400Y2311400D03*
G01*
X2057400Y2057400D03*
G01*
X2057400Y1803400D03*
G01*
X3835400Y1803400D03*
G01*
X3835400Y2057400D03*
G01*
X3835400Y2311400D03*
G01*
X3835400Y2565400D03*
G01*
X3835400Y2819400D03*
G01*
X3835400Y3073400D03*
G01*
X3835400Y3327400D03*
G01*
X3835400Y3581400D03*
G01*
X3835400Y3835400D03*
G01*
X3835400Y4089400D03*
G01*
X3835400Y4343400D03*
G01*
X3835400Y4597400D03*
D16*
G01*
X2946400Y4508500D03*
G01*
X2971800Y1892300D03*
D15*
G01*
X4876800Y-1117600D03*
G01*
X4381500Y-1117600D03*
G01*
X4495800Y1714500D03*
G01*
X5461000Y1714500D03*
G01*
X3175000Y-520700D03*
G01*
X4140200Y-520700D03*
G01*
X1566699Y4660900D03*
G01*
X1573095Y4413643D03*
M02*
