G04 Layer: TopSilkscreenLayer*
G04 EasyEDA v6.5.40, 2025-04-08 18:07:50*
G04 f69cb92f1d464a00b3157a5873f4f14e,9a3801b0f1a945d2957c124233de6e5e,10*
G04 Gerber Generator version 0.2*
G04 Scale: 100 percent, Rotated: No, Reflected: No *
G04 Dimensions in millimeters *
G04 leading zeros omitted , absolute positions ,4 integer and 5 decimal *
%FSLAX45Y45*%
%MOMM*%

%ADD10C,0.1524*%
%ADD11C,0.2032*%
%ADD12C,0.2030*%
%ADD13C,0.2030*%
%ADD14C,0.2540*%
%ADD15C,0.0100*%

%LPD*%
G36*
X5924702Y1894992D02*
G01*
X5924702Y1878228D01*
X5971692Y1862988D01*
X5971692Y1858670D01*
X5984900Y1858670D01*
X6015278Y1848815D01*
X6059322Y1835556D01*
X6059322Y1834794D01*
X6021527Y1823466D01*
X6009030Y1819300D01*
X5984900Y1811680D01*
X5984900Y1858670D01*
X5971692Y1858670D01*
X5971692Y1807362D01*
X5924702Y1792630D01*
X5924702Y1774596D01*
X6073546Y1825650D01*
X6073546Y1844192D01*
G37*
G36*
X5924702Y1753260D02*
G01*
X5924702Y1736242D01*
X5995822Y1736242D01*
X5995822Y1664614D01*
X5924702Y1664614D01*
X5924702Y1647596D01*
X6073546Y1647596D01*
X6073546Y1664614D01*
X6010554Y1664614D01*
X6010554Y1736242D01*
X6073546Y1736242D01*
X6073546Y1753260D01*
G37*
G36*
X6059322Y1620672D02*
G01*
X6059322Y1575460D01*
X5924702Y1575460D01*
X5924702Y1558188D01*
X6059322Y1558188D01*
X6059322Y1512722D01*
X6073546Y1512722D01*
X6073546Y1620672D01*
G37*
G36*
X6054242Y1498244D02*
G01*
X6045098Y1488592D01*
X6048705Y1485239D01*
X6052007Y1481734D01*
X6055004Y1478026D01*
X6057595Y1474114D01*
X6059678Y1470050D01*
X6061252Y1465834D01*
X6062268Y1461414D01*
X6062624Y1456842D01*
X6062014Y1450086D01*
X6060287Y1444294D01*
X6057493Y1439418D01*
X6053836Y1435506D01*
X6049314Y1432458D01*
X6044082Y1430324D01*
X6038240Y1429054D01*
X6031890Y1428648D01*
X6028029Y1428800D01*
X6024067Y1429258D01*
X6020003Y1430070D01*
X6015888Y1431188D01*
X6011672Y1432661D01*
X6002985Y1436624D01*
X5998464Y1439113D01*
X5989167Y1445107D01*
X5979363Y1452575D01*
X5969050Y1461465D01*
X5958179Y1471828D01*
X5946698Y1483766D01*
X5934608Y1497228D01*
X5924702Y1497228D01*
X5924702Y1405280D01*
X5938926Y1405280D01*
X5938824Y1453845D01*
X5937656Y1472336D01*
X5947816Y1461820D01*
X5957824Y1452168D01*
X5967577Y1443380D01*
X5977178Y1435557D01*
X5986678Y1428750D01*
X5996025Y1423009D01*
X6005271Y1418488D01*
X6009894Y1416659D01*
X6014466Y1415135D01*
X6019038Y1413967D01*
X6023559Y1413103D01*
X6028131Y1412544D01*
X6032652Y1412392D01*
X6039053Y1412697D01*
X6045047Y1413713D01*
X6050584Y1415338D01*
X6055664Y1417574D01*
X6060236Y1420418D01*
X6064250Y1423822D01*
X6067755Y1427784D01*
X6070701Y1432255D01*
X6072987Y1437233D01*
X6074714Y1442720D01*
X6075730Y1448663D01*
X6076086Y1455064D01*
X6075680Y1461770D01*
X6074511Y1467967D01*
X6072632Y1473708D01*
X6070092Y1479143D01*
X6066942Y1484223D01*
X6063234Y1489049D01*
X6058966Y1493723D01*
G37*
G36*
X5999632Y1384706D02*
G01*
X5990183Y1384503D01*
X5981344Y1383893D01*
X5973165Y1382877D01*
X5965545Y1381506D01*
X5958586Y1379778D01*
X5952236Y1377645D01*
X5946495Y1375206D01*
X5941364Y1372412D01*
X5936843Y1369263D01*
X5932932Y1365859D01*
X5929630Y1362100D01*
X5926937Y1358036D01*
X5924854Y1353667D01*
X5923330Y1349044D01*
X5922467Y1344117D01*
X5922162Y1338986D01*
X5935370Y1338986D01*
X5935776Y1343304D01*
X5937046Y1347368D01*
X5939180Y1351127D01*
X5942228Y1354582D01*
X5946089Y1357731D01*
X5950915Y1360525D01*
X5956655Y1362913D01*
X5963310Y1364945D01*
X5970930Y1366570D01*
X5979515Y1367739D01*
X5989066Y1368450D01*
X5999632Y1368704D01*
X6009995Y1368450D01*
X6019393Y1367739D01*
X6027775Y1366570D01*
X6035243Y1364945D01*
X6041796Y1362913D01*
X6047435Y1360525D01*
X6052108Y1357731D01*
X6055918Y1354582D01*
X6058865Y1351127D01*
X6060948Y1347368D01*
X6062218Y1343304D01*
X6062624Y1338986D01*
X6062218Y1334719D01*
X6060948Y1330706D01*
X6058865Y1326997D01*
X6055918Y1323594D01*
X6052108Y1320546D01*
X6047435Y1317802D01*
X6041796Y1315415D01*
X6035243Y1313434D01*
X6027775Y1311859D01*
X6019393Y1310690D01*
X6009995Y1310030D01*
X5999632Y1309776D01*
X5989066Y1310030D01*
X5979515Y1310690D01*
X5970930Y1311859D01*
X5963310Y1313434D01*
X5956655Y1315415D01*
X5950915Y1317802D01*
X5946089Y1320546D01*
X5942228Y1323594D01*
X5939180Y1326997D01*
X5937046Y1330706D01*
X5935776Y1334719D01*
X5935370Y1338986D01*
X5922162Y1338986D01*
X5922467Y1333906D01*
X5923330Y1329080D01*
X5924854Y1324508D01*
X5926937Y1320241D01*
X5929630Y1316228D01*
X5932932Y1312519D01*
X5936843Y1309116D01*
X5941364Y1305966D01*
X5946495Y1303223D01*
X5952236Y1300784D01*
X5958586Y1298651D01*
X5965545Y1296924D01*
X5973165Y1295552D01*
X5981344Y1294587D01*
X5990183Y1293977D01*
X5999632Y1293774D01*
X6008979Y1293977D01*
X6017717Y1294587D01*
X6025845Y1295552D01*
X6033312Y1296924D01*
X6040221Y1298651D01*
X6046470Y1300784D01*
X6052159Y1303223D01*
X6057188Y1305966D01*
X6061659Y1309116D01*
X6065469Y1312519D01*
X6068720Y1316228D01*
X6071412Y1320241D01*
X6073444Y1324508D01*
X6074918Y1329080D01*
X6075781Y1333906D01*
X6076086Y1338986D01*
X6075781Y1344117D01*
X6074918Y1349044D01*
X6073444Y1353667D01*
X6071412Y1358036D01*
X6068720Y1362100D01*
X6065469Y1365859D01*
X6061659Y1369263D01*
X6057188Y1372412D01*
X6052159Y1375206D01*
X6046470Y1377645D01*
X6040221Y1379778D01*
X6033312Y1381506D01*
X6025845Y1382877D01*
X6017717Y1383893D01*
X6008979Y1384503D01*
G37*
G36*
X5993282Y1275740D02*
G01*
X5993282Y1234338D01*
X5948578Y1234338D01*
X5948578Y1220876D01*
X5993282Y1220876D01*
X5993282Y1179474D01*
X6005728Y1179474D01*
X6005728Y1220876D01*
X6050178Y1220876D01*
X6050178Y1234338D01*
X6005728Y1234338D01*
X6005728Y1275740D01*
G37*
G36*
X5924702Y1151026D02*
G01*
X5924702Y1134262D01*
X6060084Y1134262D01*
X6060084Y1110386D01*
X6059728Y1101902D01*
X6058712Y1094486D01*
X6056934Y1088186D01*
X6054344Y1083056D01*
X6050940Y1078992D01*
X6046571Y1076147D01*
X6041288Y1074369D01*
X6034938Y1073810D01*
X6029401Y1074318D01*
X6024422Y1075944D01*
X6020104Y1078687D01*
X6016447Y1082598D01*
X6013500Y1087780D01*
X6011316Y1094282D01*
X6009995Y1102106D01*
X6009538Y1111402D01*
X6009538Y1134262D01*
X5996584Y1134262D01*
X5996584Y1107338D01*
X5996381Y1100836D01*
X5995873Y1094841D01*
X5994958Y1089355D01*
X5993638Y1084376D01*
X5991961Y1079906D01*
X5989878Y1076045D01*
X5987389Y1072692D01*
X5984544Y1069949D01*
X5981242Y1067765D01*
X5977585Y1066190D01*
X5973419Y1065225D01*
X5968898Y1064920D01*
X5963818Y1065225D01*
X5959195Y1066241D01*
X5955080Y1067816D01*
X5951423Y1070051D01*
X5948273Y1072845D01*
X5945530Y1076198D01*
X5943244Y1080160D01*
X5941364Y1084580D01*
X5939942Y1089558D01*
X5938977Y1094994D01*
X5938367Y1100937D01*
X5938164Y1107338D01*
X5938164Y1134262D01*
X5924702Y1134262D01*
X5924854Y1098651D01*
X5925362Y1092809D01*
X5926226Y1087221D01*
X5927394Y1081938D01*
X5928918Y1076960D01*
X5930798Y1072337D01*
X5933033Y1068019D01*
X5935573Y1064107D01*
X5938418Y1060602D01*
X5941669Y1057452D01*
X5945225Y1054760D01*
X5949137Y1052525D01*
X5953353Y1050747D01*
X5957976Y1049477D01*
X5962853Y1048664D01*
X5968136Y1048410D01*
X5975350Y1048969D01*
X5981801Y1050696D01*
X5987440Y1053388D01*
X5992317Y1057046D01*
X5996432Y1061567D01*
X5999734Y1066850D01*
X6002223Y1072794D01*
X6003950Y1079398D01*
X6004712Y1079398D01*
X6006896Y1074369D01*
X6009690Y1069949D01*
X6013145Y1066139D01*
X6017107Y1062990D01*
X6021578Y1060551D01*
X6026404Y1058722D01*
X6031534Y1057656D01*
X6036970Y1057300D01*
X6043117Y1057706D01*
X6048654Y1058926D01*
X6053632Y1060958D01*
X6057950Y1063701D01*
X6061760Y1067155D01*
X6064961Y1071270D01*
X6067653Y1075994D01*
X6069838Y1081379D01*
X6071463Y1087272D01*
X6072632Y1093724D01*
X6073343Y1100683D01*
X6073546Y1108100D01*
X6073546Y1151026D01*
G37*
G36*
X5924702Y1018692D02*
G01*
X5924702Y1003452D01*
X6015532Y1003503D01*
X6037732Y1004366D01*
X6053734Y1005484D01*
X6053734Y1004468D01*
X6019952Y992784D01*
X5939942Y963574D01*
X5939942Y951890D01*
X6019952Y922934D01*
X6053734Y910996D01*
X6053734Y910234D01*
X6020816Y912063D01*
X6010554Y912266D01*
X5924702Y912266D01*
X5924702Y896772D01*
X6073546Y896772D01*
X6073546Y917346D01*
X5992266Y946556D01*
X5960516Y956716D01*
X5960516Y957732D01*
X5992266Y968654D01*
X6073546Y997864D01*
X6073546Y1018692D01*
G37*
G36*
X5924702Y855116D02*
G01*
X5924702Y838352D01*
X6059830Y838352D01*
X6059678Y809904D01*
X6059220Y803910D01*
X6058357Y798474D01*
X6057138Y793648D01*
X6055512Y789330D01*
X6053480Y785622D01*
X6050940Y782472D01*
X6047943Y779932D01*
X6044387Y777900D01*
X6040323Y776478D01*
X6035649Y775614D01*
X6030366Y775360D01*
X6025083Y775614D01*
X6020358Y776427D01*
X6016091Y777798D01*
X6012332Y779729D01*
X6009030Y782167D01*
X6006185Y785215D01*
X6003848Y788822D01*
X6001918Y792988D01*
X6000445Y797763D01*
X5999429Y803097D01*
X5998819Y808990D01*
X5998616Y815492D01*
X5998616Y838352D01*
X5984900Y838352D01*
X5985052Y807161D01*
X5985560Y801370D01*
X5986424Y795883D01*
X5987643Y790752D01*
X5989218Y785876D01*
X5991098Y781405D01*
X5993384Y777290D01*
X5996025Y773531D01*
X5999022Y770128D01*
X6002375Y767181D01*
X6006084Y764590D01*
X6010198Y762457D01*
X6014669Y760780D01*
X6019495Y759561D01*
X6024727Y758850D01*
X6030366Y758596D01*
X6036106Y758850D01*
X6041390Y759612D01*
X6046216Y760831D01*
X6050635Y762508D01*
X6054547Y764692D01*
X6058103Y767283D01*
X6061202Y770280D01*
X6063945Y773684D01*
X6066332Y777494D01*
X6068314Y781710D01*
X6069990Y786282D01*
X6071311Y791159D01*
X6072276Y796391D01*
X6072987Y801979D01*
X6073394Y807821D01*
X6073546Y813968D01*
X6073546Y855116D01*
G37*
G36*
X6054242Y740562D02*
G01*
X6045098Y730910D01*
X6048705Y727557D01*
X6052007Y724052D01*
X6055004Y720344D01*
X6057595Y716432D01*
X6059678Y712368D01*
X6061252Y708152D01*
X6062268Y703732D01*
X6062624Y699160D01*
X6062014Y692404D01*
X6060287Y686612D01*
X6057493Y681736D01*
X6053836Y677824D01*
X6049314Y674776D01*
X6044082Y672642D01*
X6038240Y671372D01*
X6031890Y670966D01*
X6028029Y671118D01*
X6024067Y671576D01*
X6020003Y672388D01*
X6015888Y673506D01*
X6011672Y674979D01*
X6002985Y678942D01*
X5998464Y681431D01*
X5989167Y687425D01*
X5979363Y694893D01*
X5969050Y703783D01*
X5958179Y714146D01*
X5946698Y726084D01*
X5934608Y739546D01*
X5924702Y739546D01*
X5924702Y647598D01*
X5938926Y647598D01*
X5938824Y696061D01*
X5937656Y714654D01*
X5947816Y704138D01*
X5957824Y694486D01*
X5967577Y685698D01*
X5977178Y677875D01*
X5986678Y671068D01*
X5996025Y665327D01*
X6005271Y660806D01*
X6009894Y658977D01*
X6014466Y657453D01*
X6019038Y656285D01*
X6023559Y655421D01*
X6028131Y654862D01*
X6032652Y654710D01*
X6039053Y655015D01*
X6045047Y656031D01*
X6050584Y657656D01*
X6055664Y659892D01*
X6060236Y662736D01*
X6064250Y666140D01*
X6067755Y670102D01*
X6070701Y674573D01*
X6072987Y679551D01*
X6074714Y685038D01*
X6075730Y690981D01*
X6076086Y697382D01*
X6075680Y704088D01*
X6074511Y710285D01*
X6072632Y716026D01*
X6070092Y721461D01*
X6066942Y726541D01*
X6063234Y731367D01*
X6058966Y736041D01*
G37*
G36*
X5961786Y628040D02*
G01*
X5956147Y627634D01*
X5950813Y626414D01*
X5945835Y624484D01*
X5941263Y621893D01*
X5937046Y618591D01*
X5933287Y614680D01*
X5930036Y610209D01*
X5927293Y605231D01*
X5925108Y599744D01*
X5923483Y593801D01*
X5922518Y587502D01*
X5922162Y580796D01*
X5934354Y580796D01*
X5934913Y587400D01*
X5936488Y593547D01*
X5939078Y599033D01*
X5942482Y603758D01*
X5946648Y607669D01*
X5951474Y610565D01*
X5956909Y612394D01*
X5962802Y613054D01*
X5968288Y612648D01*
X5973470Y611479D01*
X5978398Y609549D01*
X5982970Y607009D01*
X5987237Y603859D01*
X5991148Y600202D01*
X5994704Y596036D01*
X5997854Y591464D01*
X5993536Y580948D01*
X5988559Y570636D01*
X6004712Y570636D01*
X6007354Y577240D01*
X6010249Y583539D01*
X6013450Y589381D01*
X6017056Y594563D01*
X6021222Y598932D01*
X6026048Y602284D01*
X6031585Y604418D01*
X6037986Y605180D01*
X6043371Y604723D01*
X6048248Y603351D01*
X6052515Y601218D01*
X6056172Y598322D01*
X6059119Y594766D01*
X6061303Y590600D01*
X6062675Y585927D01*
X6063132Y580796D01*
X6062573Y574852D01*
X6060948Y569569D01*
X6058408Y565048D01*
X6055055Y561289D01*
X6050940Y558292D01*
X6046317Y556158D01*
X6041186Y554837D01*
X6035700Y554380D01*
X6027267Y555447D01*
X6019241Y558596D01*
X6011672Y563676D01*
X6004712Y570636D01*
X5988559Y570636D01*
X5986475Y566978D01*
X5983782Y563016D01*
X5980836Y559562D01*
X5977585Y556564D01*
X5974029Y554126D01*
X5970066Y552348D01*
X5965647Y551180D01*
X5960770Y550824D01*
X5955233Y551383D01*
X5950204Y552958D01*
X5945733Y555548D01*
X5941822Y559054D01*
X5938672Y563372D01*
X5936335Y568502D01*
X5934862Y574344D01*
X5934354Y580796D01*
X5922162Y580796D01*
X5922518Y574141D01*
X5923483Y567893D01*
X5925108Y562051D01*
X5927293Y556768D01*
X5929985Y551942D01*
X5933186Y547624D01*
X5936843Y543915D01*
X5940907Y540816D01*
X5945327Y538378D01*
X5950051Y536549D01*
X5955030Y535432D01*
X5960262Y535076D01*
X5967476Y535635D01*
X5973876Y537159D01*
X5979566Y539597D01*
X5984595Y542798D01*
X5989015Y546557D01*
X5992926Y550824D01*
X5996330Y555396D01*
X5999378Y560222D01*
X6000394Y560222D01*
X6003290Y556818D01*
X6006693Y553313D01*
X6010656Y549960D01*
X6015075Y546862D01*
X6019952Y544169D01*
X6025134Y542036D01*
X6030671Y540664D01*
X6036462Y540156D01*
X6042050Y540461D01*
X6047282Y541375D01*
X6052210Y542899D01*
X6056782Y545033D01*
X6060897Y547725D01*
X6064605Y550926D01*
X6067806Y554634D01*
X6070498Y558901D01*
X6072682Y563626D01*
X6074257Y568807D01*
X6075222Y574446D01*
X6075578Y580542D01*
X6075273Y586079D01*
X6074359Y591362D01*
X6072835Y596290D01*
X6070803Y600913D01*
X6068212Y605129D01*
X6065164Y608939D01*
X6061608Y612292D01*
X6057646Y615086D01*
X6053277Y617372D01*
X6048552Y619048D01*
X6043422Y620064D01*
X6037986Y620420D01*
X6032398Y620014D01*
X6027166Y618794D01*
X6022340Y616966D01*
X6017920Y614476D01*
X6013856Y611479D01*
X6010198Y608076D01*
X6006896Y604367D01*
X6003950Y600354D01*
X6003188Y600354D01*
X6000140Y605485D01*
X5996432Y610463D01*
X5992164Y615137D01*
X5987237Y619353D01*
X5981750Y622909D01*
X5975705Y625652D01*
X5969000Y627430D01*
G37*
G36*
X5999632Y515518D02*
G01*
X5990183Y515315D01*
X5981344Y514705D01*
X5973165Y513689D01*
X5965545Y512318D01*
X5958586Y510540D01*
X5952236Y508406D01*
X5946495Y505917D01*
X5941364Y503123D01*
X5936843Y499973D01*
X5932932Y496519D01*
X5929630Y492759D01*
X5926937Y488746D01*
X5924854Y484378D01*
X5923330Y479755D01*
X5922467Y474929D01*
X5922162Y469798D01*
X5935370Y469798D01*
X5935776Y474065D01*
X5937046Y478078D01*
X5939180Y481838D01*
X5942228Y485292D01*
X5946089Y488442D01*
X5950915Y491235D01*
X5956655Y493674D01*
X5963310Y495706D01*
X5970930Y497332D01*
X5979515Y498500D01*
X5989066Y499262D01*
X5999632Y499516D01*
X6009995Y499262D01*
X6019393Y498500D01*
X6027775Y497332D01*
X6035243Y495706D01*
X6041796Y493674D01*
X6047435Y491235D01*
X6052108Y488442D01*
X6055918Y485292D01*
X6058865Y481838D01*
X6060948Y478078D01*
X6062218Y474065D01*
X6062624Y469798D01*
X6062218Y465531D01*
X6060948Y461518D01*
X6058865Y457809D01*
X6055918Y454406D01*
X6052108Y451358D01*
X6047435Y448614D01*
X6041796Y446227D01*
X6035243Y444246D01*
X6027775Y442671D01*
X6019393Y441502D01*
X6009995Y440842D01*
X5999632Y440588D01*
X5989066Y440842D01*
X5979515Y441502D01*
X5970930Y442671D01*
X5963310Y444246D01*
X5956655Y446227D01*
X5950915Y448614D01*
X5946089Y451358D01*
X5942228Y454406D01*
X5939180Y457809D01*
X5937046Y461518D01*
X5935776Y465531D01*
X5935370Y469798D01*
X5922162Y469798D01*
X5922467Y464667D01*
X5923330Y459790D01*
X5924854Y455218D01*
X5926937Y450900D01*
X5929630Y446887D01*
X5932932Y443128D01*
X5936843Y439674D01*
X5941364Y436575D01*
X5946495Y433781D01*
X5952236Y431342D01*
X5958586Y429259D01*
X5965545Y427482D01*
X5973165Y426110D01*
X5981344Y425145D01*
X5990183Y424535D01*
X5999632Y424332D01*
X6008979Y424535D01*
X6017717Y425145D01*
X6025845Y426110D01*
X6033312Y427482D01*
X6040221Y429259D01*
X6046470Y431342D01*
X6052159Y433781D01*
X6057188Y436575D01*
X6061659Y439674D01*
X6065469Y443128D01*
X6068720Y446887D01*
X6071412Y450900D01*
X6073444Y455218D01*
X6074918Y459790D01*
X6075781Y464667D01*
X6076086Y469798D01*
X6075781Y474929D01*
X6074918Y479755D01*
X6073444Y484378D01*
X6071412Y488746D01*
X6068720Y492759D01*
X6065469Y496519D01*
X6061659Y499973D01*
X6057188Y503123D01*
X6052159Y505917D01*
X6046470Y508406D01*
X6040221Y510540D01*
X6033312Y512318D01*
X6025845Y513689D01*
X6017717Y514705D01*
X6008979Y515315D01*
G37*
D10*
X4876800Y1588515D02*
G01*
X4918456Y1479550D01*
X4959858Y1588515D02*
G01*
X4918456Y1479550D01*
X4994147Y1588515D02*
G01*
X4994147Y1479550D01*
X4994147Y1588515D02*
G01*
X5030470Y1588515D01*
X5046218Y1583436D01*
X5056631Y1573021D01*
X5061711Y1562607D01*
X5067045Y1546860D01*
X5067045Y1520952D01*
X5061711Y1505457D01*
X5056631Y1495044D01*
X5046218Y1484629D01*
X5030470Y1479550D01*
X4994147Y1479550D01*
X5101336Y1588515D02*
G01*
X5101336Y1479550D01*
X5101336Y1588515D02*
G01*
X5137658Y1588515D01*
X5153152Y1583436D01*
X5163565Y1573021D01*
X5168900Y1562607D01*
X5173979Y1546860D01*
X5173979Y1520952D01*
X5168900Y1505457D01*
X5163565Y1495044D01*
X5153152Y1484629D01*
X5137658Y1479550D01*
X5101336Y1479550D01*
X4954777Y1041907D02*
G01*
X4949443Y1052321D01*
X4939029Y1062736D01*
X4928870Y1067815D01*
X4908041Y1067815D01*
X4897627Y1062736D01*
X4887213Y1052321D01*
X4881879Y1041907D01*
X4876800Y1026160D01*
X4876800Y1000252D01*
X4881879Y984757D01*
X4887213Y974344D01*
X4897627Y963929D01*
X4908041Y958850D01*
X4928870Y958850D01*
X4939029Y963929D01*
X4949443Y974344D01*
X4954777Y984757D01*
X4954777Y1000252D01*
X4928870Y1000252D02*
G01*
X4954777Y1000252D01*
X4989068Y1067815D02*
G01*
X4989068Y958850D01*
X4989068Y1067815D02*
G01*
X5061711Y958850D01*
X5061711Y1067815D02*
G01*
X5061711Y958850D01*
X5096002Y1067815D02*
G01*
X5096002Y958850D01*
X5096002Y1067815D02*
G01*
X5132324Y1067815D01*
X5148072Y1062736D01*
X5158486Y1052321D01*
X5163565Y1041907D01*
X5168900Y1026160D01*
X5168900Y1000252D01*
X5163565Y984757D01*
X5158486Y974344D01*
X5148072Y963929D01*
X5132324Y958850D01*
X5096002Y958850D01*
X4924043Y1306321D02*
G01*
X4913629Y1316736D01*
X4898136Y1321815D01*
X4877308Y1321815D01*
X4861813Y1316736D01*
X4851400Y1306321D01*
X4851400Y1295907D01*
X4856479Y1285494D01*
X4861813Y1280160D01*
X4872227Y1275079D01*
X4903470Y1264665D01*
X4913629Y1259586D01*
X4918963Y1254252D01*
X4924043Y1243837D01*
X4924043Y1228344D01*
X4913629Y1217929D01*
X4898136Y1212850D01*
X4877308Y1212850D01*
X4861813Y1217929D01*
X4851400Y1228344D01*
X4958334Y1321815D02*
G01*
X4958334Y1212850D01*
X4958334Y1321815D02*
G01*
X4994909Y1321815D01*
X5010404Y1316736D01*
X5020818Y1306321D01*
X5025897Y1295907D01*
X5031231Y1280160D01*
X5031231Y1254252D01*
X5025897Y1238757D01*
X5020818Y1228344D01*
X5010404Y1217929D01*
X4994909Y1212850D01*
X4958334Y1212850D01*
X5106924Y1321815D02*
G01*
X5065522Y1212850D01*
X5106924Y1321815D02*
G01*
X5148579Y1212850D01*
X5081015Y1249171D02*
G01*
X5133086Y1249171D01*
X4949443Y772921D02*
G01*
X4939029Y783336D01*
X4923536Y788415D01*
X4902708Y788415D01*
X4887213Y783336D01*
X4876800Y772921D01*
X4876800Y762507D01*
X4881879Y752094D01*
X4887213Y746760D01*
X4897627Y741679D01*
X4928870Y731265D01*
X4939029Y726186D01*
X4944363Y720852D01*
X4949443Y710437D01*
X4949443Y694944D01*
X4939029Y684529D01*
X4923536Y679450D01*
X4902708Y679450D01*
X4887213Y684529D01*
X4876800Y694944D01*
X5061711Y762507D02*
G01*
X5056631Y772921D01*
X5046218Y783336D01*
X5035804Y788415D01*
X5014975Y788415D01*
X5004561Y783336D01*
X4994147Y772921D01*
X4989068Y762507D01*
X4983734Y746760D01*
X4983734Y720852D01*
X4989068Y705357D01*
X4994147Y694944D01*
X5004561Y684529D01*
X5014975Y679450D01*
X5035804Y679450D01*
X5046218Y684529D01*
X5056631Y694944D01*
X5061711Y705357D01*
X5096002Y788415D02*
G01*
X5096002Y679450D01*
X5096002Y679450D02*
G01*
X5158486Y679450D01*
X3709415Y838200D02*
G01*
X3600450Y796544D01*
X3709415Y755142D02*
G01*
X3600450Y796544D01*
X3683508Y642873D02*
G01*
X3693922Y647954D01*
X3704336Y658368D01*
X3709415Y668781D01*
X3709415Y689610D01*
X3704336Y700023D01*
X3693922Y710437D01*
X3683508Y715518D01*
X3667759Y720852D01*
X3641852Y720852D01*
X3626358Y715518D01*
X3615943Y710437D01*
X3605529Y700023D01*
X3600450Y689610D01*
X3600450Y668781D01*
X3605529Y658368D01*
X3615943Y647954D01*
X3626358Y642873D01*
X3683508Y530605D02*
G01*
X3693922Y535939D01*
X3704336Y546100D01*
X3709415Y556513D01*
X3709415Y577342D01*
X3704336Y587755D01*
X3693922Y598170D01*
X3683508Y603250D01*
X3667759Y608584D01*
X3641852Y608584D01*
X3626358Y603250D01*
X3615943Y598170D01*
X3605529Y587755D01*
X3600450Y577342D01*
X3600450Y556513D01*
X3605529Y546100D01*
X3615943Y535939D01*
X3626358Y530605D01*
X3429508Y760221D02*
G01*
X3439922Y765555D01*
X3450336Y775970D01*
X3455415Y786129D01*
X3455415Y806957D01*
X3450336Y817371D01*
X3439922Y827786D01*
X3429508Y833120D01*
X3413759Y838200D01*
X3387852Y838200D01*
X3372358Y833120D01*
X3361943Y827786D01*
X3351529Y817371D01*
X3346450Y806957D01*
X3346450Y786129D01*
X3351529Y775970D01*
X3361943Y765555D01*
X3372358Y760221D01*
X3387852Y760221D01*
X3387852Y786129D02*
G01*
X3387852Y760221D01*
X3455415Y725931D02*
G01*
X3346450Y725931D01*
X3455415Y725931D02*
G01*
X3346450Y653287D01*
X3455415Y653287D02*
G01*
X3346450Y653287D01*
X3455415Y618997D02*
G01*
X3346450Y618997D01*
X3455415Y618997D02*
G01*
X3455415Y582676D01*
X3450336Y566928D01*
X3439922Y556513D01*
X3429508Y551434D01*
X3413759Y546100D01*
X3387852Y546100D01*
X3372358Y551434D01*
X3361943Y556513D01*
X3351529Y566928D01*
X3346450Y582676D01*
X3346450Y618997D01*
X3173222Y740155D02*
G01*
X3183636Y750570D01*
X3188715Y766063D01*
X3188715Y786892D01*
X3183636Y802386D01*
X3173222Y812800D01*
X3162808Y812800D01*
X3152393Y807720D01*
X3147059Y802386D01*
X3141979Y791971D01*
X3131565Y760729D01*
X3126486Y750570D01*
X3121152Y745236D01*
X3110738Y740155D01*
X3095243Y740155D01*
X3084829Y750570D01*
X3079750Y766063D01*
X3079750Y786892D01*
X3084829Y802386D01*
X3095243Y812800D01*
X3162808Y627887D02*
G01*
X3173222Y632968D01*
X3183636Y643381D01*
X3188715Y653795D01*
X3188715Y674623D01*
X3183636Y685037D01*
X3173222Y695452D01*
X3162808Y700531D01*
X3147059Y705865D01*
X3121152Y705865D01*
X3105658Y700531D01*
X3095243Y695452D01*
X3084829Y685037D01*
X3079750Y674623D01*
X3079750Y653795D01*
X3084829Y643381D01*
X3095243Y632968D01*
X3105658Y627887D01*
X3188715Y593597D02*
G01*
X3079750Y593597D01*
X3079750Y593597D02*
G01*
X3079750Y531113D01*
X2931922Y752855D02*
G01*
X2942336Y763270D01*
X2947415Y778763D01*
X2947415Y799592D01*
X2942336Y815086D01*
X2931922Y825500D01*
X2921508Y825500D01*
X2911093Y820420D01*
X2905759Y815086D01*
X2900679Y804671D01*
X2890265Y773429D01*
X2885186Y763270D01*
X2879852Y757936D01*
X2869438Y752855D01*
X2853943Y752855D01*
X2843529Y763270D01*
X2838450Y778763D01*
X2838450Y799592D01*
X2843529Y815086D01*
X2853943Y825500D01*
X2947415Y718565D02*
G01*
X2838450Y718565D01*
X2947415Y718565D02*
G01*
X2947415Y681989D01*
X2942336Y666495D01*
X2931922Y656081D01*
X2921508Y651002D01*
X2905759Y645668D01*
X2879852Y645668D01*
X2864358Y651002D01*
X2853943Y656081D01*
X2843529Y666495D01*
X2838450Y681989D01*
X2838450Y718565D01*
X2947415Y569976D02*
G01*
X2838450Y611378D01*
X2947415Y569976D02*
G01*
X2838450Y528320D01*
X2874772Y595884D02*
G01*
X2874772Y543813D01*
X3810508Y-700278D02*
G01*
X3820922Y-694944D01*
X3831336Y-684529D01*
X3836415Y-674370D01*
X3836415Y-653542D01*
X3831336Y-643128D01*
X3820922Y-632713D01*
X3810508Y-627379D01*
X3794759Y-622300D01*
X3768852Y-622300D01*
X3753358Y-627379D01*
X3742943Y-632713D01*
X3732529Y-643128D01*
X3727450Y-653542D01*
X3727450Y-674370D01*
X3732529Y-684529D01*
X3742943Y-694944D01*
X3753358Y-700278D01*
X3768852Y-700278D01*
X3768852Y-674370D02*
G01*
X3768852Y-700278D01*
X3836415Y-734568D02*
G01*
X3727450Y-734568D01*
X3836415Y-734568D02*
G01*
X3727450Y-807212D01*
X3836415Y-807212D02*
G01*
X3727450Y-807212D01*
X3836415Y-841502D02*
G01*
X3727450Y-841502D01*
X3836415Y-841502D02*
G01*
X3836415Y-877823D01*
X3831336Y-893571D01*
X3820922Y-903986D01*
X3810508Y-909065D01*
X3794759Y-914400D01*
X3768852Y-914400D01*
X3753358Y-909065D01*
X3742943Y-903986D01*
X3732529Y-893571D01*
X3727450Y-877823D01*
X3727450Y-841502D01*
X4090415Y-723900D02*
G01*
X3981450Y-765555D01*
X4090415Y-806957D02*
G01*
X3981450Y-765555D01*
X4090415Y-841247D02*
G01*
X4085336Y-846581D01*
X4090415Y-851662D01*
X4095750Y-846581D01*
X4090415Y-841247D01*
X4054093Y-846581D02*
G01*
X3981450Y-846581D01*
X4054093Y-885952D02*
G01*
X3981450Y-885952D01*
X4033265Y-885952D02*
G01*
X4048759Y-901700D01*
X4054093Y-911860D01*
X4054093Y-927607D01*
X4048759Y-938021D01*
X4033265Y-943102D01*
X3981450Y-943102D01*
X3557015Y-609600D02*
G01*
X3448050Y-651255D01*
X3557015Y-692657D02*
G01*
X3448050Y-651255D01*
X3520693Y-753110D02*
G01*
X3515359Y-742695D01*
X3505200Y-732281D01*
X3489452Y-726947D01*
X3479038Y-726947D01*
X3463543Y-732281D01*
X3453129Y-742695D01*
X3448050Y-753110D01*
X3448050Y-768604D01*
X3453129Y-779018D01*
X3463543Y-789431D01*
X3479038Y-794512D01*
X3489452Y-794512D01*
X3505200Y-789431D01*
X3515359Y-779018D01*
X3520693Y-768604D01*
X3520693Y-753110D01*
X3520693Y-828802D02*
G01*
X3468624Y-828802D01*
X3453129Y-834136D01*
X3448050Y-844550D01*
X3448050Y-860044D01*
X3453129Y-870457D01*
X3468624Y-885952D01*
X3520693Y-885952D02*
G01*
X3448050Y-885952D01*
X3557015Y-935989D02*
G01*
X3468624Y-935989D01*
X3453129Y-941070D01*
X3448050Y-951484D01*
X3448050Y-961897D01*
X3520693Y-920242D02*
G01*
X3520693Y-956563D01*
X1676907Y-636778D02*
G01*
X1687321Y-631444D01*
X1697736Y-621029D01*
X1702815Y-610870D01*
X1702815Y-590042D01*
X1697736Y-579628D01*
X1687321Y-569213D01*
X1676907Y-563879D01*
X1661160Y-558800D01*
X1635252Y-558800D01*
X1619757Y-563879D01*
X1609344Y-569213D01*
X1598929Y-579628D01*
X1593850Y-590042D01*
X1593850Y-610870D01*
X1598929Y-621029D01*
X1609344Y-631444D01*
X1619757Y-636778D01*
X1635252Y-636778D01*
X1635252Y-610870D02*
G01*
X1635252Y-636778D01*
X1702815Y-671068D02*
G01*
X1593850Y-671068D01*
X1702815Y-671068D02*
G01*
X1593850Y-743712D01*
X1702815Y-743712D02*
G01*
X1593850Y-743712D01*
X1702815Y-778002D02*
G01*
X1593850Y-778002D01*
X1702815Y-778002D02*
G01*
X1702815Y-814323D01*
X1697736Y-830071D01*
X1687321Y-840486D01*
X1676907Y-845565D01*
X1661160Y-850900D01*
X1635252Y-850900D01*
X1619757Y-845565D01*
X1609344Y-840486D01*
X1598929Y-830071D01*
X1593850Y-814323D01*
X1593850Y-778002D01*
X1956815Y-520700D02*
G01*
X1847850Y-562355D01*
X1956815Y-603757D02*
G01*
X1847850Y-562355D01*
X1930908Y-716026D02*
G01*
X1941322Y-710945D01*
X1951736Y-700531D01*
X1956815Y-690118D01*
X1956815Y-669289D01*
X1951736Y-658876D01*
X1941322Y-648462D01*
X1930908Y-643381D01*
X1915160Y-638047D01*
X1889252Y-638047D01*
X1873757Y-643381D01*
X1863344Y-648462D01*
X1852929Y-658876D01*
X1847850Y-669289D01*
X1847850Y-690118D01*
X1852929Y-700531D01*
X1863344Y-710945D01*
X1873757Y-716026D01*
X1930908Y-828294D02*
G01*
X1941322Y-822960D01*
X1951736Y-812800D01*
X1956815Y-802386D01*
X1956815Y-781557D01*
X1951736Y-771144D01*
X1941322Y-760729D01*
X1930908Y-755650D01*
X1915160Y-750315D01*
X1889252Y-750315D01*
X1873757Y-755650D01*
X1863344Y-760729D01*
X1852929Y-771144D01*
X1847850Y-781557D01*
X1847850Y-802386D01*
X1852929Y-812800D01*
X1863344Y-822960D01*
X1873757Y-828294D01*
X2464815Y-645921D02*
G01*
X2355850Y-645921D01*
X2464815Y-609600D02*
G01*
X2464815Y-682244D01*
X2464815Y-716534D02*
G01*
X2355850Y-789431D01*
X2464815Y-789431D02*
G01*
X2355850Y-716534D01*
X2718815Y-635000D02*
G01*
X2609850Y-635000D01*
X2718815Y-635000D02*
G01*
X2718815Y-681736D01*
X2713736Y-697229D01*
X2708402Y-702563D01*
X2697988Y-707644D01*
X2687574Y-707644D01*
X2677159Y-702563D01*
X2672079Y-697229D01*
X2667000Y-681736D01*
X2667000Y-635000D01*
X2667000Y-671321D02*
G01*
X2609850Y-707644D01*
X2718815Y-741934D02*
G01*
X2609850Y-814831D01*
X2718815Y-814831D02*
G01*
X2609850Y-741934D01*
D11*
X1346200Y-453389D02*
G01*
X1382521Y-548894D01*
X1418844Y-453389D02*
G01*
X1382521Y-548894D01*
X1517142Y-476250D02*
G01*
X1512570Y-467105D01*
X1503426Y-457962D01*
X1494281Y-453389D01*
X1476247Y-453389D01*
X1467104Y-457962D01*
X1457960Y-467105D01*
X1453387Y-476250D01*
X1448815Y-489712D01*
X1448815Y-512571D01*
X1453387Y-526287D01*
X1457960Y-535178D01*
X1467104Y-544321D01*
X1476247Y-548894D01*
X1494281Y-548894D01*
X1503426Y-544321D01*
X1512570Y-535178D01*
X1517142Y-526287D01*
X1615186Y-476250D02*
G01*
X1610868Y-467105D01*
X1601723Y-457962D01*
X1592579Y-453389D01*
X1574292Y-453389D01*
X1565402Y-457962D01*
X1556257Y-467105D01*
X1551686Y-476250D01*
X1547113Y-489712D01*
X1547113Y-512571D01*
X1551686Y-526287D01*
X1556257Y-535178D01*
X1565402Y-544321D01*
X1574292Y-548894D01*
X1592579Y-548894D01*
X1601723Y-544321D01*
X1610868Y-535178D01*
X1615186Y-526287D01*
X1401571Y-226568D02*
G01*
X1397254Y-217423D01*
X1388110Y-208534D01*
X1378965Y-203962D01*
X1360678Y-203962D01*
X1351787Y-208534D01*
X1342644Y-217423D01*
X1338071Y-226568D01*
X1333500Y-240284D01*
X1333500Y-262889D01*
X1338071Y-276605D01*
X1342644Y-285750D01*
X1351787Y-294894D01*
X1360678Y-299465D01*
X1378965Y-299465D01*
X1388110Y-294894D01*
X1397254Y-285750D01*
X1401571Y-276605D01*
X1401571Y-262889D01*
X1378965Y-262889D02*
G01*
X1401571Y-262889D01*
X1431797Y-203962D02*
G01*
X1431797Y-299465D01*
X1431797Y-203962D02*
G01*
X1495297Y-299465D01*
X1495297Y-203962D02*
G01*
X1495297Y-299465D01*
X1525270Y-203962D02*
G01*
X1525270Y-299465D01*
X1525270Y-203962D02*
G01*
X1557020Y-203962D01*
X1570736Y-208534D01*
X1579879Y-217423D01*
X1584452Y-226568D01*
X1589023Y-240284D01*
X1589023Y-262889D01*
X1584452Y-276605D01*
X1579879Y-285750D01*
X1570736Y-294894D01*
X1557020Y-299465D01*
X1525270Y-299465D01*
X1390650Y50037D02*
G01*
X1390650Y-45465D01*
X1358900Y50037D02*
G01*
X1422654Y50037D01*
X1452626Y50037D02*
G01*
X1516126Y-45465D01*
X1516126Y50037D02*
G01*
X1452626Y-45465D01*
X1346200Y342137D02*
G01*
X1346200Y246634D01*
X1346200Y342137D02*
G01*
X1387094Y342137D01*
X1400810Y337565D01*
X1405381Y332994D01*
X1409954Y324104D01*
X1409954Y314960D01*
X1405381Y305815D01*
X1400810Y301244D01*
X1387094Y296671D01*
X1346200Y296671D01*
X1377950Y296671D02*
G01*
X1409954Y246634D01*
X1439926Y342137D02*
G01*
X1503426Y246634D01*
X1503426Y342137D02*
G01*
X1439926Y246634D01*
X862329Y4661915D02*
G01*
X810513Y4661915D01*
X805179Y4615179D01*
X810513Y4620260D01*
X826007Y4625594D01*
X841755Y4625594D01*
X857250Y4620260D01*
X867663Y4610100D01*
X872744Y4594352D01*
X872744Y4583937D01*
X867663Y4568444D01*
X857250Y4558029D01*
X841755Y4552950D01*
X826007Y4552950D01*
X810513Y4558029D01*
X805179Y4563110D01*
X800100Y4573523D01*
X907034Y4661915D02*
G01*
X948689Y4552950D01*
X990345Y4661915D02*
G01*
X948689Y4552950D01*
X801878Y4407407D02*
G01*
X796544Y4417821D01*
X786129Y4428236D01*
X775970Y4433315D01*
X755142Y4433315D01*
X744728Y4428236D01*
X734313Y4417821D01*
X728979Y4407407D01*
X723900Y4391660D01*
X723900Y4365752D01*
X728979Y4350257D01*
X734313Y4339844D01*
X744728Y4329429D01*
X755142Y4324350D01*
X775970Y4324350D01*
X786129Y4329429D01*
X796544Y4339844D01*
X801878Y4350257D01*
X801878Y4365752D01*
X775970Y4365752D02*
G01*
X801878Y4365752D01*
X836168Y4433315D02*
G01*
X836168Y4324350D01*
X836168Y4433315D02*
G01*
X908812Y4324350D01*
X908812Y4433315D02*
G01*
X908812Y4324350D01*
X943102Y4433315D02*
G01*
X943102Y4324350D01*
X943102Y4433315D02*
G01*
X979423Y4433315D01*
X995171Y4428236D01*
X1005586Y4417821D01*
X1010665Y4407407D01*
X1016000Y4391660D01*
X1016000Y4365752D01*
X1010665Y4350257D01*
X1005586Y4339844D01*
X995171Y4329429D01*
X979423Y4324350D01*
X943102Y4324350D01*
X863600Y4158487D02*
G01*
X874013Y4163821D01*
X889507Y4179315D01*
X889507Y4070350D01*
X929131Y4153407D02*
G01*
X929131Y4158487D01*
X934212Y4168902D01*
X939545Y4174236D01*
X949960Y4179315D01*
X970534Y4179315D01*
X980947Y4174236D01*
X986281Y4168902D01*
X991362Y4158487D01*
X991362Y4148073D01*
X986281Y4137660D01*
X975868Y4122165D01*
X923797Y4070350D01*
X996695Y4070350D01*
X889000Y3917187D02*
G01*
X899413Y3922521D01*
X914907Y3938015D01*
X914907Y3829050D01*
X949197Y3917187D02*
G01*
X959612Y3922521D01*
X975360Y3938015D01*
X975360Y3829050D01*
X1351279Y3645407D02*
G01*
X1351279Y3650487D01*
X1356613Y3660902D01*
X1361694Y3666236D01*
X1372107Y3671315D01*
X1392936Y3671315D01*
X1403350Y3666236D01*
X1408429Y3660902D01*
X1413763Y3650487D01*
X1413763Y3640073D01*
X1408429Y3629660D01*
X1398270Y3614165D01*
X1346200Y3562350D01*
X1418844Y3562350D01*
X1358900Y3434587D02*
G01*
X1369313Y3439921D01*
X1384807Y3455415D01*
X1384807Y3346450D01*
X1331213Y2604515D02*
G01*
X1388363Y2604515D01*
X1357121Y2562860D01*
X1372870Y2562860D01*
X1383029Y2557779D01*
X1388363Y2552700D01*
X1393444Y2536952D01*
X1393444Y2526537D01*
X1388363Y2511044D01*
X1377950Y2500629D01*
X1362455Y2495550D01*
X1346707Y2495550D01*
X1331213Y2500629D01*
X1325879Y2505710D01*
X1320800Y2516123D01*
X1427734Y2604515D02*
G01*
X1469389Y2495550D01*
X1511045Y2604515D02*
G01*
X1469389Y2495550D01*
X1555750Y2604515D02*
G01*
X1612900Y2604515D01*
X1581657Y2562860D01*
X1597152Y2562860D01*
X1607565Y2557779D01*
X1612900Y2552700D01*
X1617979Y2536952D01*
X1617979Y2526537D01*
X1612900Y2511044D01*
X1602486Y2500629D01*
X1586737Y2495550D01*
X1571244Y2495550D01*
X1555750Y2500629D01*
X1550415Y2505710D01*
X1545336Y2516123D01*
X1371600Y3167887D02*
G01*
X1382013Y3173221D01*
X1397507Y3188715D01*
X1397507Y3079750D01*
X1504695Y3188715D02*
G01*
X1452626Y3079750D01*
X1431797Y3188715D02*
G01*
X1504695Y3188715D01*
X1358900Y2888487D02*
G01*
X1369313Y2893821D01*
X1384807Y2909315D01*
X1384807Y2800350D01*
X1445260Y2909315D02*
G01*
X1429512Y2904236D01*
X1424431Y2893821D01*
X1424431Y2883407D01*
X1429512Y2872994D01*
X1439926Y2867660D01*
X1460754Y2862579D01*
X1476247Y2857500D01*
X1486662Y2847086D01*
X1491995Y2836671D01*
X1491995Y2820923D01*
X1486662Y2810510D01*
X1481581Y2805429D01*
X1465834Y2800350D01*
X1445260Y2800350D01*
X1429512Y2805429D01*
X1424431Y2810510D01*
X1419097Y2820923D01*
X1419097Y2836671D01*
X1424431Y2847086D01*
X1434845Y2857500D01*
X1450339Y2862579D01*
X1471168Y2867660D01*
X1481581Y2872994D01*
X1486662Y2883407D01*
X1486662Y2893821D01*
X1481581Y2904236D01*
X1465834Y2909315D01*
X1445260Y2909315D01*
D10*
X991107Y49021D02*
G01*
X1001521Y54355D01*
X1011936Y64770D01*
X1017015Y74929D01*
X1017015Y95757D01*
X1011936Y106171D01*
X1001521Y116586D01*
X991107Y121920D01*
X975360Y127000D01*
X949452Y127000D01*
X933957Y121920D01*
X923544Y116586D01*
X913129Y106171D01*
X908050Y95757D01*
X908050Y74929D01*
X913129Y64770D01*
X923544Y54355D01*
X933957Y49021D01*
X949452Y49021D01*
X949452Y74929D02*
G01*
X949452Y49021D01*
X1017015Y14731D02*
G01*
X908050Y14731D01*
X1017015Y14731D02*
G01*
X1017015Y-32004D01*
X1011936Y-47497D01*
X1006602Y-52831D01*
X996187Y-57912D01*
X980694Y-57912D01*
X970279Y-52831D01*
X965200Y-47497D01*
X959865Y-32004D01*
X959865Y14731D01*
X1001521Y-165100D02*
G01*
X1011936Y-154686D01*
X1017015Y-138937D01*
X1017015Y-118110D01*
X1011936Y-102615D01*
X1001521Y-92202D01*
X991107Y-92202D01*
X980694Y-97536D01*
X975360Y-102615D01*
X970279Y-113029D01*
X959865Y-144271D01*
X954786Y-154686D01*
X949452Y-159765D01*
X939037Y-165100D01*
X923544Y-165100D01*
X913129Y-154686D01*
X908050Y-138937D01*
X908050Y-118110D01*
X913129Y-102615D01*
X923544Y-92202D01*
X3785870Y-849884D02*
G01*
X3785870Y-932942D01*
X3780536Y-948689D01*
X3775456Y-953770D01*
X3765041Y-958850D01*
X3754627Y-958850D01*
X3744213Y-953770D01*
X3738879Y-948689D01*
X3733800Y-932942D01*
X3733800Y-922528D01*
X3820159Y-870712D02*
G01*
X3830320Y-865378D01*
X3846068Y-849884D01*
X3846068Y-958850D01*
X2185670Y-697484D02*
G01*
X2185670Y-780542D01*
X2180336Y-796289D01*
X2175256Y-801370D01*
X2164841Y-806450D01*
X2154427Y-806450D01*
X2144013Y-801370D01*
X2138679Y-796289D01*
X2133600Y-780542D01*
X2133600Y-770128D01*
X2225040Y-723392D02*
G01*
X2225040Y-718312D01*
X2230120Y-707897D01*
X2235454Y-702563D01*
X2245868Y-697484D01*
X2266695Y-697484D01*
X2277109Y-702563D01*
X2282190Y-707897D01*
X2287270Y-718312D01*
X2287270Y-728726D01*
X2282190Y-739139D01*
X2271775Y-754634D01*
X2219959Y-806450D01*
X2292604Y-806450D01*
X5308600Y3544315D02*
G01*
X5308600Y3435350D01*
X5308600Y3544315D02*
G01*
X5350256Y3435350D01*
X5391658Y3544315D02*
G01*
X5350256Y3435350D01*
X5391658Y3544315D02*
G01*
X5391658Y3435350D01*
X5425947Y3523487D02*
G01*
X5436361Y3528821D01*
X5452109Y3544315D01*
X5452109Y3435350D01*
D11*
X4902200Y3255010D02*
G01*
X4938522Y3159505D01*
X4974843Y3255010D02*
G01*
X4938522Y3159505D01*
X5073141Y3232150D02*
G01*
X5068570Y3241294D01*
X5059425Y3250437D01*
X5050281Y3255010D01*
X5032247Y3255010D01*
X5023104Y3250437D01*
X5013959Y3241294D01*
X5009388Y3232150D01*
X5004815Y3218687D01*
X5004815Y3195828D01*
X5009388Y3182112D01*
X5013959Y3173221D01*
X5023104Y3164078D01*
X5032247Y3159505D01*
X5050281Y3159505D01*
X5059425Y3164078D01*
X5068570Y3173221D01*
X5073141Y3182112D01*
X5171186Y3232150D02*
G01*
X5166868Y3241294D01*
X5157724Y3250437D01*
X5148579Y3255010D01*
X5130291Y3255010D01*
X5121402Y3250437D01*
X5112258Y3241294D01*
X5107686Y3232150D01*
X5103113Y3218687D01*
X5103113Y3195828D01*
X5107686Y3182112D01*
X5112258Y3173221D01*
X5121402Y3164078D01*
X5130291Y3159505D01*
X5148579Y3159505D01*
X5157724Y3164078D01*
X5166868Y3173221D01*
X5171186Y3182112D01*
X4970272Y2978150D02*
G01*
X4965954Y2987294D01*
X4956809Y2996437D01*
X4947665Y3001010D01*
X4929377Y3001010D01*
X4920488Y2996437D01*
X4911343Y2987294D01*
X4906772Y2978150D01*
X4902200Y2964687D01*
X4902200Y2941828D01*
X4906772Y2928112D01*
X4911343Y2919221D01*
X4920488Y2910078D01*
X4929377Y2905505D01*
X4947665Y2905505D01*
X4956809Y2910078D01*
X4965954Y2919221D01*
X4970272Y2928112D01*
X4970272Y2941828D01*
X4947665Y2941828D02*
G01*
X4970272Y2941828D01*
X5000497Y3001010D02*
G01*
X5000497Y2905505D01*
X5000497Y3001010D02*
G01*
X5063997Y2905505D01*
X5063997Y3001010D02*
G01*
X5063997Y2905505D01*
X5093970Y3001010D02*
G01*
X5093970Y2905505D01*
X5093970Y3001010D02*
G01*
X5125720Y3001010D01*
X5139436Y2996437D01*
X5148579Y2987294D01*
X5153152Y2978150D01*
X5157724Y2964687D01*
X5157724Y2941828D01*
X5153152Y2928112D01*
X5148579Y2919221D01*
X5139436Y2910078D01*
X5125720Y2905505D01*
X5093970Y2905505D01*
X4965954Y2733294D02*
G01*
X4956809Y2742437D01*
X4943093Y2747010D01*
X4924806Y2747010D01*
X4911343Y2742437D01*
X4902200Y2733294D01*
X4902200Y2724150D01*
X4906772Y2715005D01*
X4911343Y2710687D01*
X4920488Y2706115D01*
X4947665Y2696971D01*
X4956809Y2692400D01*
X4961381Y2687828D01*
X4965954Y2678684D01*
X4965954Y2665221D01*
X4956809Y2656078D01*
X4943093Y2651505D01*
X4924806Y2651505D01*
X4911343Y2656078D01*
X4902200Y2665221D01*
X5063997Y2724150D02*
G01*
X5059425Y2733294D01*
X5050281Y2742437D01*
X5041391Y2747010D01*
X5023104Y2747010D01*
X5013959Y2742437D01*
X5004815Y2733294D01*
X5000497Y2724150D01*
X4995925Y2710687D01*
X4995925Y2687828D01*
X5000497Y2674112D01*
X5004815Y2665221D01*
X5013959Y2656078D01*
X5023104Y2651505D01*
X5041391Y2651505D01*
X5050281Y2656078D01*
X5059425Y2665221D01*
X5063997Y2674112D01*
X5093970Y2747010D02*
G01*
X5093970Y2651505D01*
X5093970Y2651505D02*
G01*
X5148579Y2651505D01*
X4965954Y2479294D02*
G01*
X4956809Y2488437D01*
X4943093Y2493010D01*
X4924806Y2493010D01*
X4911343Y2488437D01*
X4902200Y2479294D01*
X4902200Y2470150D01*
X4906772Y2461005D01*
X4911343Y2456687D01*
X4920488Y2452115D01*
X4947665Y2442971D01*
X4956809Y2438400D01*
X4961381Y2433828D01*
X4965954Y2424684D01*
X4965954Y2411221D01*
X4956809Y2402078D01*
X4943093Y2397505D01*
X4924806Y2397505D01*
X4911343Y2402078D01*
X4902200Y2411221D01*
X4995925Y2493010D02*
G01*
X4995925Y2397505D01*
X4995925Y2493010D02*
G01*
X5027675Y2493010D01*
X5041391Y2488437D01*
X5050281Y2479294D01*
X5054854Y2470150D01*
X5059425Y2456687D01*
X5059425Y2433828D01*
X5054854Y2420112D01*
X5050281Y2411221D01*
X5041391Y2402078D01*
X5027675Y2397505D01*
X4995925Y2397505D01*
X5125720Y2493010D02*
G01*
X5089397Y2397505D01*
X5125720Y2493010D02*
G01*
X5162295Y2397505D01*
X5103113Y2429255D02*
G01*
X5148579Y2429255D01*
X4902200Y2239010D02*
G01*
X4902200Y2143505D01*
X4902200Y2239010D02*
G01*
X4933950Y2239010D01*
X4947665Y2234437D01*
X4956809Y2225294D01*
X4961381Y2216150D01*
X4965954Y2202687D01*
X4965954Y2179828D01*
X4961381Y2166112D01*
X4956809Y2157221D01*
X4947665Y2148078D01*
X4933950Y2143505D01*
X4902200Y2143505D01*
X4995925Y2239010D02*
G01*
X4995925Y2143505D01*
X4995925Y2239010D02*
G01*
X5036820Y2239010D01*
X5050281Y2234437D01*
X5054854Y2229865D01*
X5059425Y2220721D01*
X5059425Y2211578D01*
X5054854Y2202687D01*
X5050281Y2198115D01*
X5036820Y2193544D01*
X4995925Y2193544D01*
X5027675Y2193544D02*
G01*
X5059425Y2143505D01*
X5089397Y2239010D02*
G01*
X5089397Y2143505D01*
X5089397Y2239010D02*
G01*
X5121402Y2239010D01*
X5134863Y2234437D01*
X5144008Y2225294D01*
X5148579Y2216150D01*
X5153152Y2202687D01*
X5153152Y2179828D01*
X5148579Y2166112D01*
X5144008Y2157221D01*
X5134863Y2148078D01*
X5121402Y2143505D01*
X5089397Y2143505D01*
X5183124Y2239010D02*
G01*
X5219445Y2193544D01*
X5219445Y2143505D01*
X5255768Y2239010D02*
G01*
X5219445Y2193544D01*
X5789422Y2489200D02*
G01*
X5983224Y2489200D01*
X5789422Y2489200D02*
G01*
X5983224Y2563113D01*
X5789422Y2637028D02*
G01*
X5983224Y2563113D01*
X5789422Y2637028D02*
G01*
X5983224Y2637028D01*
X5789422Y2771902D02*
G01*
X5983224Y2697987D01*
X5789422Y2771902D02*
G01*
X5983224Y2845815D01*
X5918708Y2725673D02*
G01*
X5918708Y2818129D01*
X5835650Y3045205D02*
G01*
X5817108Y3036062D01*
X5798565Y3017520D01*
X5789422Y2998978D01*
X5789422Y2962147D01*
X5798565Y2943605D01*
X5817108Y2925063D01*
X5835650Y2915920D01*
X5863336Y2906776D01*
X5909309Y2906776D01*
X5937250Y2915920D01*
X5955538Y2925063D01*
X5974079Y2943605D01*
X5983224Y2962147D01*
X5983224Y2998978D01*
X5974079Y3017520D01*
X5955538Y3036062D01*
X5937250Y3045205D01*
X5909309Y3045205D01*
X5909309Y2998978D02*
G01*
X5909309Y3045205D01*
D10*
X6325615Y1168400D02*
G01*
X6216650Y1168400D01*
X6325615Y1168400D02*
G01*
X6216650Y1126744D01*
X6325615Y1085342D02*
G01*
X6216650Y1126744D01*
X6325615Y1085342D02*
G01*
X6216650Y1085342D01*
X6325615Y1019810D02*
G01*
X6320536Y1030223D01*
X6310122Y1040637D01*
X6299708Y1045718D01*
X6283959Y1051052D01*
X6258052Y1051052D01*
X6242558Y1045718D01*
X6232143Y1040637D01*
X6221729Y1030223D01*
X6216650Y1019810D01*
X6216650Y998981D01*
X6221729Y988568D01*
X6232143Y978154D01*
X6242558Y973073D01*
X6258052Y967739D01*
X6283959Y967739D01*
X6299708Y973073D01*
X6310122Y978154D01*
X6320536Y988568D01*
X6325615Y998981D01*
X6325615Y1019810D01*
X6325615Y933450D02*
G01*
X6216650Y933450D01*
X6325615Y933450D02*
G01*
X6325615Y897128D01*
X6320536Y881634D01*
X6310122Y871220D01*
X6299708Y866139D01*
X6283959Y860805D01*
X6258052Y860805D01*
X6242558Y866139D01*
X6232143Y871220D01*
X6221729Y881634D01*
X6216650Y897128D01*
X6216650Y933450D01*
X6304788Y826515D02*
G01*
X6310122Y816102D01*
X6325615Y800607D01*
X6216650Y800607D01*
X4521708Y-404876D02*
G01*
X4630674Y-404876D01*
X4521708Y-404876D02*
G01*
X4521708Y-358139D01*
X4526788Y-342645D01*
X4532122Y-337312D01*
X4542536Y-332231D01*
X4558029Y-332231D01*
X4568443Y-337312D01*
X4573524Y-342645D01*
X4578858Y-358139D01*
X4578858Y-404876D01*
X4542536Y-297942D02*
G01*
X4537202Y-287528D01*
X4521708Y-271779D01*
X4630674Y-271779D01*
X3019366Y-485754D02*
G01*
X3019366Y-407776D01*
X3014286Y-392282D01*
X3003872Y-381868D01*
X2988124Y-376788D01*
X2977710Y-376788D01*
X2962216Y-381868D01*
X2951802Y-392282D01*
X2946722Y-407776D01*
X2946722Y-485754D01*
X2912432Y-464926D02*
G01*
X2902018Y-470260D01*
X2886270Y-485754D01*
X2886270Y-376788D01*
D11*
X3492639Y447654D02*
G01*
X3441839Y512170D01*
X3441839Y447654D02*
G01*
X3492639Y512170D01*
X3720746Y185176D02*
G01*
X3693060Y249946D01*
X3665374Y185176D02*
G01*
X3693060Y249946D01*
X3702458Y268488D01*
X3711602Y277632D01*
X3720746Y282204D01*
X3725572Y282204D01*
X3642936Y408833D02*
G01*
X3707706Y505861D01*
X3707706Y408833D02*
G01*
X3642936Y408833D01*
X3707706Y505861D02*
G01*
X3642936Y505861D01*
D10*
X5232400Y4954015D02*
G01*
X5232400Y4845050D01*
X5232400Y4954015D02*
G01*
X5279136Y4954015D01*
X5294629Y4948936D01*
X5299963Y4943602D01*
X5305043Y4933187D01*
X5305043Y4922773D01*
X5299963Y4912360D01*
X5294629Y4907279D01*
X5279136Y4902200D01*
X5232400Y4902200D02*
G01*
X5279136Y4902200D01*
X5294629Y4896865D01*
X5299963Y4891786D01*
X5305043Y4881371D01*
X5305043Y4865623D01*
X5299963Y4855210D01*
X5294629Y4850129D01*
X5279136Y4845050D01*
X5232400Y4845050D01*
X5339334Y4954015D02*
G01*
X5339334Y4845050D01*
X5339334Y4954015D02*
G01*
X5380990Y4845050D01*
X5422645Y4954015D02*
G01*
X5380990Y4845050D01*
X5422645Y4954015D02*
G01*
X5422645Y4845050D01*
X5456936Y4954015D02*
G01*
X5456936Y4845050D01*
X5456936Y4954015D02*
G01*
X5503672Y4954015D01*
X5519165Y4948936D01*
X5524500Y4943602D01*
X5529579Y4933187D01*
X5529579Y4917694D01*
X5524500Y4907279D01*
X5519165Y4902200D01*
X5503672Y4896865D01*
X5456936Y4896865D01*
X5563870Y4933187D02*
G01*
X5574284Y4938521D01*
X5589777Y4954015D01*
X5589777Y4845050D01*
X5650229Y4954015D02*
G01*
X5634481Y4948936D01*
X5629402Y4938521D01*
X5629402Y4928107D01*
X5634481Y4917694D01*
X5644895Y4912360D01*
X5665724Y4907279D01*
X5681218Y4902200D01*
X5691631Y4891786D01*
X5696965Y4881371D01*
X5696965Y4865623D01*
X5691631Y4855210D01*
X5686552Y4850129D01*
X5670804Y4845050D01*
X5650229Y4845050D01*
X5634481Y4850129D01*
X5629402Y4855210D01*
X5624068Y4865623D01*
X5624068Y4881371D01*
X5629402Y4891786D01*
X5639815Y4902200D01*
X5655309Y4907279D01*
X5676138Y4912360D01*
X5686552Y4917694D01*
X5691631Y4928107D01*
X5691631Y4938521D01*
X5686552Y4948936D01*
X5670804Y4954015D01*
X5650229Y4954015D01*
X5762243Y4954015D02*
G01*
X5746750Y4948936D01*
X5736336Y4933187D01*
X5731256Y4907279D01*
X5731256Y4891786D01*
X5736336Y4865623D01*
X5746750Y4850129D01*
X5762243Y4845050D01*
X5772658Y4845050D01*
X5788406Y4850129D01*
X5798820Y4865623D01*
X5803900Y4891786D01*
X5803900Y4907279D01*
X5798820Y4933187D01*
X5788406Y4948936D01*
X5772658Y4954015D01*
X5762243Y4954015D01*
D12*
X4978400Y4605525D02*
G01*
X5014975Y4509767D01*
X5051297Y4605525D02*
G01*
X5014975Y4509767D01*
X5081524Y4605525D02*
G01*
X5086095Y4600953D01*
X5090668Y4605525D01*
X5086095Y4610097D01*
X5081524Y4605525D01*
X5086095Y4573775D02*
G01*
X5086095Y4509767D01*
X5120640Y4573775D02*
G01*
X5120640Y4509767D01*
X5120640Y4555487D02*
G01*
X5134356Y4569203D01*
X5143500Y4573775D01*
X5157215Y4573775D01*
X5166359Y4569203D01*
X5170677Y4555487D01*
X5170677Y4509767D01*
D11*
X5021325Y4333494D02*
G01*
X5016754Y4342637D01*
X5007609Y4351528D01*
X4998465Y4356100D01*
X4980431Y4356100D01*
X4971288Y4351528D01*
X4962143Y4342637D01*
X4957572Y4333494D01*
X4953000Y4319778D01*
X4953000Y4296918D01*
X4957572Y4283202D01*
X4962143Y4274057D01*
X4971288Y4264913D01*
X4980431Y4260342D01*
X4998465Y4260342D01*
X5007609Y4264913D01*
X5016754Y4274057D01*
X5021325Y4283202D01*
X5021325Y4296918D01*
X4998465Y4296918D02*
G01*
X5021325Y4296918D01*
X5051552Y4356100D02*
G01*
X5051552Y4260342D01*
X5051552Y4356100D02*
G01*
X5115306Y4260342D01*
X5115306Y4356100D02*
G01*
X5115306Y4260342D01*
X5145277Y4356100D02*
G01*
X5145277Y4260342D01*
X5145277Y4356100D02*
G01*
X5177281Y4356100D01*
X5190997Y4351528D01*
X5200141Y4342637D01*
X5204713Y4333494D01*
X5209286Y4319778D01*
X5209286Y4296918D01*
X5204713Y4283202D01*
X5200141Y4274057D01*
X5190997Y4264913D01*
X5177281Y4260342D01*
X5145277Y4260342D01*
X5018786Y4087876D02*
G01*
X5009388Y4097273D01*
X4995163Y4102100D01*
X4976368Y4102100D01*
X4962397Y4097273D01*
X4953000Y4087876D01*
X4953000Y4078478D01*
X4957572Y4069079D01*
X4962397Y4064507D01*
X4971795Y4059681D01*
X4999990Y4050284D01*
X5009388Y4045712D01*
X5013959Y4041139D01*
X5018786Y4031742D01*
X5018786Y4017518D01*
X5009388Y4008120D01*
X4995163Y4003547D01*
X4976368Y4003547D01*
X4962397Y4008120D01*
X4953000Y4017518D01*
X5119877Y4078478D02*
G01*
X5115306Y4087876D01*
X5105908Y4097273D01*
X5096509Y4102100D01*
X5077713Y4102100D01*
X5068315Y4097273D01*
X5058918Y4087876D01*
X5054345Y4078478D01*
X5049520Y4064507D01*
X5049520Y4041139D01*
X5054345Y4026915D01*
X5058918Y4017518D01*
X5068315Y4008120D01*
X5077713Y4003547D01*
X5096509Y4003547D01*
X5105908Y4008120D01*
X5115306Y4017518D01*
X5119877Y4026915D01*
X5150865Y4102100D02*
G01*
X5150865Y4003547D01*
X5150865Y4003547D02*
G01*
X5207254Y4003547D01*
X5018786Y3833876D02*
G01*
X5009388Y3843273D01*
X4995163Y3848100D01*
X4976368Y3848100D01*
X4962397Y3843273D01*
X4953000Y3833876D01*
X4953000Y3824478D01*
X4957572Y3815079D01*
X4962397Y3810507D01*
X4971795Y3805681D01*
X4999990Y3796284D01*
X5009388Y3791712D01*
X5013959Y3787139D01*
X5018786Y3777742D01*
X5018786Y3763518D01*
X5009388Y3754120D01*
X4995163Y3749547D01*
X4976368Y3749547D01*
X4962397Y3754120D01*
X4953000Y3763518D01*
X5049520Y3848100D02*
G01*
X5049520Y3749547D01*
X5049520Y3848100D02*
G01*
X5082540Y3848100D01*
X5096509Y3843273D01*
X5105908Y3833876D01*
X5110734Y3824478D01*
X5115306Y3810507D01*
X5115306Y3787139D01*
X5110734Y3772915D01*
X5105908Y3763518D01*
X5096509Y3754120D01*
X5082540Y3749547D01*
X5049520Y3749547D01*
X5183886Y3848100D02*
G01*
X5146293Y3749547D01*
X5183886Y3848100D02*
G01*
X5221224Y3749547D01*
X5160263Y3782313D02*
G01*
X5207254Y3782313D01*
D10*
X2921000Y4941315D02*
G01*
X2921000Y4863337D01*
X2926079Y4847844D01*
X2936493Y4837429D01*
X2952241Y4832350D01*
X2962656Y4832350D01*
X2978150Y4837429D01*
X2988563Y4847844D01*
X2993643Y4863337D01*
X2993643Y4941315D01*
X3038347Y4941315D02*
G01*
X3095497Y4941315D01*
X3064509Y4899660D01*
X3080004Y4899660D01*
X3090418Y4894579D01*
X3095497Y4889500D01*
X3100831Y4873752D01*
X3100831Y4863337D01*
X3095497Y4847844D01*
X3085084Y4837429D01*
X3069590Y4832350D01*
X3054095Y4832350D01*
X3038347Y4837429D01*
X3033268Y4842510D01*
X3027934Y4852923D01*
D11*
X2171700Y4649215D02*
G01*
X2213356Y4540250D01*
X2254758Y4649215D02*
G01*
X2213356Y4540250D01*
X2289047Y4649215D02*
G01*
X2289047Y4540250D01*
X2323338Y4649215D02*
G01*
X2323338Y4540250D01*
X2323338Y4649215D02*
G01*
X2396236Y4540250D01*
X2396236Y4649215D02*
G01*
X2396236Y4540250D01*
X2262377Y4369307D02*
G01*
X2257043Y4379721D01*
X2246629Y4390136D01*
X2236470Y4395215D01*
X2215641Y4395215D01*
X2205227Y4390136D01*
X2194813Y4379721D01*
X2189479Y4369307D01*
X2184400Y4353560D01*
X2184400Y4327652D01*
X2189479Y4312157D01*
X2194813Y4301744D01*
X2205227Y4291329D01*
X2215641Y4286250D01*
X2236470Y4286250D01*
X2246629Y4291329D01*
X2257043Y4301744D01*
X2262377Y4312157D01*
X2262377Y4327652D01*
X2236470Y4327652D02*
G01*
X2262377Y4327652D01*
X2296668Y4395215D02*
G01*
X2296668Y4286250D01*
X2296668Y4395215D02*
G01*
X2369311Y4286250D01*
X2369311Y4395215D02*
G01*
X2369311Y4286250D01*
X2403602Y4395215D02*
G01*
X2403602Y4286250D01*
X2403602Y4395215D02*
G01*
X2439924Y4395215D01*
X2455672Y4390136D01*
X2466086Y4379721D01*
X2471165Y4369307D01*
X2476500Y4353560D01*
X2476500Y4327652D01*
X2471165Y4312157D01*
X2466086Y4301744D01*
X2455672Y4291329D01*
X2439924Y4286250D01*
X2403602Y4286250D01*
X2257043Y4125721D02*
G01*
X2246629Y4136136D01*
X2231136Y4141215D01*
X2210308Y4141215D01*
X2194813Y4136136D01*
X2184400Y4125721D01*
X2184400Y4115307D01*
X2189479Y4104894D01*
X2194813Y4099560D01*
X2205227Y4094479D01*
X2236470Y4084065D01*
X2246629Y4078986D01*
X2251963Y4073652D01*
X2257043Y4063237D01*
X2257043Y4047744D01*
X2246629Y4037329D01*
X2231136Y4032250D01*
X2210308Y4032250D01*
X2194813Y4037329D01*
X2184400Y4047744D01*
X2291334Y4141215D02*
G01*
X2291334Y4032250D01*
X2291334Y4141215D02*
G01*
X2327909Y4141215D01*
X2343404Y4136136D01*
X2353818Y4125721D01*
X2358897Y4115307D01*
X2364231Y4099560D01*
X2364231Y4073652D01*
X2358897Y4058157D01*
X2353818Y4047744D01*
X2343404Y4037329D01*
X2327909Y4032250D01*
X2291334Y4032250D01*
X2439924Y4141215D02*
G01*
X2398522Y4032250D01*
X2439924Y4141215D02*
G01*
X2481579Y4032250D01*
X2414015Y4068571D02*
G01*
X2466086Y4068571D01*
X2257043Y3871721D02*
G01*
X2246629Y3882136D01*
X2231136Y3887215D01*
X2210308Y3887215D01*
X2194813Y3882136D01*
X2184400Y3871721D01*
X2184400Y3861307D01*
X2189479Y3850894D01*
X2194813Y3845560D01*
X2205227Y3840479D01*
X2236470Y3830065D01*
X2246629Y3824986D01*
X2251963Y3819652D01*
X2257043Y3809237D01*
X2257043Y3793744D01*
X2246629Y3783329D01*
X2231136Y3778250D01*
X2210308Y3778250D01*
X2194813Y3783329D01*
X2184400Y3793744D01*
X2369311Y3861307D02*
G01*
X2364231Y3871721D01*
X2353818Y3882136D01*
X2343404Y3887215D01*
X2322575Y3887215D01*
X2312161Y3882136D01*
X2301747Y3871721D01*
X2296668Y3861307D01*
X2291334Y3845560D01*
X2291334Y3819652D01*
X2296668Y3804157D01*
X2301747Y3793744D01*
X2312161Y3783329D01*
X2322575Y3778250D01*
X2343404Y3778250D01*
X2353818Y3783329D01*
X2364231Y3793744D01*
X2369311Y3804157D01*
X2403602Y3887215D02*
G01*
X2403602Y3778250D01*
X2403602Y3778250D02*
G01*
X2466086Y3778250D01*
X2184400Y3633215D02*
G01*
X2184400Y3524250D01*
X2184400Y3633215D02*
G01*
X2231136Y3633215D01*
X2246629Y3628136D01*
X2251963Y3622802D01*
X2257043Y3612387D01*
X2257043Y3601973D01*
X2251963Y3591560D01*
X2246629Y3586479D01*
X2231136Y3581400D01*
X2184400Y3581400D01*
X2220722Y3581400D02*
G01*
X2257043Y3524250D01*
X2364231Y3617721D02*
G01*
X2353818Y3628136D01*
X2338070Y3633215D01*
X2317495Y3633215D01*
X2301747Y3628136D01*
X2291334Y3617721D01*
X2291334Y3607307D01*
X2296668Y3596894D01*
X2301747Y3591560D01*
X2312161Y3586479D01*
X2343404Y3576065D01*
X2353818Y3570986D01*
X2358897Y3565652D01*
X2364231Y3555237D01*
X2364231Y3539744D01*
X2353818Y3529329D01*
X2338070Y3524250D01*
X2317495Y3524250D01*
X2301747Y3529329D01*
X2291334Y3539744D01*
X2434843Y3633215D02*
G01*
X2434843Y3524250D01*
X2398522Y3633215D02*
G01*
X2471165Y3633215D01*
X2226056Y3379215D02*
G01*
X2184400Y3270250D01*
X2226056Y3379215D02*
G01*
X2267458Y3270250D01*
X2199893Y3306571D02*
G01*
X2251963Y3306571D01*
X2332990Y3379215D02*
G01*
X2317495Y3374136D01*
X2307081Y3358387D01*
X2301747Y3332479D01*
X2301747Y3316986D01*
X2307081Y3290823D01*
X2317495Y3275329D01*
X2332990Y3270250D01*
X2343404Y3270250D01*
X2358897Y3275329D01*
X2369311Y3290823D01*
X2374645Y3316986D01*
X2374645Y3332479D01*
X2369311Y3358387D01*
X2358897Y3374136D01*
X2343404Y3379215D01*
X2332990Y3379215D01*
X2226056Y2871215D02*
G01*
X2184400Y2762250D01*
X2226056Y2871215D02*
G01*
X2267458Y2762250D01*
X2199893Y2798571D02*
G01*
X2251963Y2798571D01*
X2307081Y2845307D02*
G01*
X2307081Y2850387D01*
X2312161Y2860802D01*
X2317495Y2866136D01*
X2327909Y2871215D01*
X2348484Y2871215D01*
X2358897Y2866136D01*
X2364231Y2860802D01*
X2369311Y2850387D01*
X2369311Y2839973D01*
X2364231Y2829560D01*
X2353818Y2814065D01*
X2301747Y2762250D01*
X2374645Y2762250D01*
X2257043Y2601721D02*
G01*
X2246629Y2612136D01*
X2231136Y2617215D01*
X2210308Y2617215D01*
X2194813Y2612136D01*
X2184400Y2601721D01*
X2184400Y2591307D01*
X2189479Y2580894D01*
X2194813Y2575560D01*
X2205227Y2570479D01*
X2236470Y2560065D01*
X2246629Y2554986D01*
X2251963Y2549652D01*
X2257043Y2539237D01*
X2257043Y2523744D01*
X2246629Y2513329D01*
X2231136Y2508250D01*
X2210308Y2508250D01*
X2194813Y2513329D01*
X2184400Y2523744D01*
X2291334Y2617215D02*
G01*
X2291334Y2508250D01*
X2291334Y2617215D02*
G01*
X2327909Y2617215D01*
X2343404Y2612136D01*
X2353818Y2601721D01*
X2358897Y2591307D01*
X2364231Y2575560D01*
X2364231Y2549652D01*
X2358897Y2534157D01*
X2353818Y2523744D01*
X2343404Y2513329D01*
X2327909Y2508250D01*
X2291334Y2508250D01*
X2429509Y2617215D02*
G01*
X2414015Y2612136D01*
X2403602Y2596387D01*
X2398522Y2570479D01*
X2398522Y2554986D01*
X2403602Y2528823D01*
X2414015Y2513329D01*
X2429509Y2508250D01*
X2439924Y2508250D01*
X2455672Y2513329D01*
X2466086Y2528823D01*
X2471165Y2554986D01*
X2471165Y2570479D01*
X2466086Y2596387D01*
X2455672Y2612136D01*
X2439924Y2617215D01*
X2429509Y2617215D01*
X2257043Y2347721D02*
G01*
X2246629Y2358136D01*
X2231136Y2363215D01*
X2210308Y2363215D01*
X2194813Y2358136D01*
X2184400Y2347721D01*
X2184400Y2337307D01*
X2189479Y2326894D01*
X2194813Y2321560D01*
X2205227Y2316479D01*
X2236470Y2306065D01*
X2246629Y2300986D01*
X2251963Y2295652D01*
X2257043Y2285237D01*
X2257043Y2269744D01*
X2246629Y2259329D01*
X2231136Y2254250D01*
X2210308Y2254250D01*
X2194813Y2259329D01*
X2184400Y2269744D01*
X2369311Y2337307D02*
G01*
X2364231Y2347721D01*
X2353818Y2358136D01*
X2343404Y2363215D01*
X2322575Y2363215D01*
X2312161Y2358136D01*
X2301747Y2347721D01*
X2296668Y2337307D01*
X2291334Y2321560D01*
X2291334Y2295652D01*
X2296668Y2280157D01*
X2301747Y2269744D01*
X2312161Y2259329D01*
X2322575Y2254250D01*
X2343404Y2254250D01*
X2353818Y2259329D01*
X2364231Y2269744D01*
X2369311Y2280157D01*
X2434843Y2363215D02*
G01*
X2419350Y2358136D01*
X2408936Y2342387D01*
X2403602Y2316479D01*
X2403602Y2300986D01*
X2408936Y2274823D01*
X2419350Y2259329D01*
X2434843Y2254250D01*
X2445258Y2254250D01*
X2460752Y2259329D01*
X2471165Y2274823D01*
X2476500Y2300986D01*
X2476500Y2316479D01*
X2471165Y2342387D01*
X2460752Y2358136D01*
X2445258Y2363215D01*
X2434843Y2363215D01*
X2269743Y2093721D02*
G01*
X2259329Y2104136D01*
X2243836Y2109215D01*
X2223008Y2109215D01*
X2207513Y2104136D01*
X2197100Y2093721D01*
X2197100Y2083307D01*
X2202179Y2072894D01*
X2207513Y2067560D01*
X2217927Y2062479D01*
X2249170Y2052065D01*
X2259329Y2046986D01*
X2264663Y2041652D01*
X2269743Y2031237D01*
X2269743Y2015744D01*
X2259329Y2005329D01*
X2243836Y2000250D01*
X2223008Y2000250D01*
X2207513Y2005329D01*
X2197100Y2015744D01*
X2304034Y2109215D02*
G01*
X2304034Y2000250D01*
X2304034Y2109215D02*
G01*
X2340609Y2109215D01*
X2356104Y2104136D01*
X2366518Y2093721D01*
X2371597Y2083307D01*
X2376931Y2067560D01*
X2376931Y2041652D01*
X2371597Y2026157D01*
X2366518Y2015744D01*
X2356104Y2005329D01*
X2340609Y2000250D01*
X2304034Y2000250D01*
X2411222Y2088387D02*
G01*
X2421636Y2093721D01*
X2437129Y2109215D01*
X2437129Y2000250D01*
X2269743Y1839721D02*
G01*
X2259329Y1850136D01*
X2243836Y1855215D01*
X2223008Y1855215D01*
X2207513Y1850136D01*
X2197100Y1839721D01*
X2197100Y1829307D01*
X2202179Y1818894D01*
X2207513Y1813560D01*
X2217927Y1808479D01*
X2249170Y1798065D01*
X2259329Y1792986D01*
X2264663Y1787652D01*
X2269743Y1777237D01*
X2269743Y1761744D01*
X2259329Y1751329D01*
X2243836Y1746250D01*
X2223008Y1746250D01*
X2207513Y1751329D01*
X2197100Y1761744D01*
X2382011Y1829307D02*
G01*
X2376931Y1839721D01*
X2366518Y1850136D01*
X2356104Y1855215D01*
X2335275Y1855215D01*
X2324861Y1850136D01*
X2314447Y1839721D01*
X2309368Y1829307D01*
X2304034Y1813560D01*
X2304034Y1787652D01*
X2309368Y1772157D01*
X2314447Y1761744D01*
X2324861Y1751329D01*
X2335275Y1746250D01*
X2356104Y1746250D01*
X2366518Y1751329D01*
X2376931Y1761744D01*
X2382011Y1772157D01*
X2416302Y1834387D02*
G01*
X2426715Y1839721D01*
X2442209Y1855215D01*
X2442209Y1746250D01*
X3488943Y1839721D02*
G01*
X3478529Y1850136D01*
X3463036Y1855215D01*
X3442208Y1855215D01*
X3426713Y1850136D01*
X3416300Y1839721D01*
X3416300Y1829307D01*
X3421379Y1818894D01*
X3426713Y1813560D01*
X3437127Y1808479D01*
X3468370Y1798065D01*
X3478529Y1792986D01*
X3483863Y1787652D01*
X3488943Y1777237D01*
X3488943Y1761744D01*
X3478529Y1751329D01*
X3463036Y1746250D01*
X3442208Y1746250D01*
X3426713Y1751329D01*
X3416300Y1761744D01*
X3523234Y1855215D02*
G01*
X3523234Y1746250D01*
X3523234Y1855215D02*
G01*
X3559809Y1855215D01*
X3575304Y1850136D01*
X3585718Y1839721D01*
X3590797Y1829307D01*
X3596131Y1813560D01*
X3596131Y1787652D01*
X3590797Y1772157D01*
X3585718Y1761744D01*
X3575304Y1751329D01*
X3559809Y1746250D01*
X3523234Y1746250D01*
X3635502Y1829307D02*
G01*
X3635502Y1834387D01*
X3640836Y1844802D01*
X3645915Y1850136D01*
X3656329Y1855215D01*
X3677158Y1855215D01*
X3687572Y1850136D01*
X3692652Y1844802D01*
X3697986Y1834387D01*
X3697986Y1823973D01*
X3692652Y1813560D01*
X3682238Y1798065D01*
X3630422Y1746250D01*
X3703065Y1746250D01*
X3488943Y2093721D02*
G01*
X3478529Y2104136D01*
X3463036Y2109215D01*
X3442208Y2109215D01*
X3426713Y2104136D01*
X3416300Y2093721D01*
X3416300Y2083307D01*
X3421379Y2072894D01*
X3426713Y2067560D01*
X3437127Y2062479D01*
X3468370Y2052065D01*
X3478529Y2046986D01*
X3483863Y2041652D01*
X3488943Y2031237D01*
X3488943Y2015744D01*
X3478529Y2005329D01*
X3463036Y2000250D01*
X3442208Y2000250D01*
X3426713Y2005329D01*
X3416300Y2015744D01*
X3601211Y2083307D02*
G01*
X3596131Y2093721D01*
X3585718Y2104136D01*
X3575304Y2109215D01*
X3554475Y2109215D01*
X3544061Y2104136D01*
X3533647Y2093721D01*
X3528568Y2083307D01*
X3523234Y2067560D01*
X3523234Y2041652D01*
X3528568Y2026157D01*
X3533647Y2015744D01*
X3544061Y2005329D01*
X3554475Y2000250D01*
X3575304Y2000250D01*
X3585718Y2005329D01*
X3596131Y2015744D01*
X3601211Y2026157D01*
X3640836Y2083307D02*
G01*
X3640836Y2088387D01*
X3645915Y2098802D01*
X3651250Y2104136D01*
X3661409Y2109215D01*
X3682238Y2109215D01*
X3692652Y2104136D01*
X3697986Y2098802D01*
X3703065Y2088387D01*
X3703065Y2077973D01*
X3697986Y2067560D01*
X3687572Y2052065D01*
X3635502Y2000250D01*
X3708400Y2000250D01*
X3488943Y2347721D02*
G01*
X3478529Y2358136D01*
X3463036Y2363215D01*
X3442208Y2363215D01*
X3426713Y2358136D01*
X3416300Y2347721D01*
X3416300Y2337307D01*
X3421379Y2326894D01*
X3426713Y2321560D01*
X3437127Y2316479D01*
X3468370Y2306065D01*
X3478529Y2300986D01*
X3483863Y2295652D01*
X3488943Y2285237D01*
X3488943Y2269744D01*
X3478529Y2259329D01*
X3463036Y2254250D01*
X3442208Y2254250D01*
X3426713Y2259329D01*
X3416300Y2269744D01*
X3523234Y2363215D02*
G01*
X3523234Y2254250D01*
X3523234Y2363215D02*
G01*
X3559809Y2363215D01*
X3575304Y2358136D01*
X3585718Y2347721D01*
X3590797Y2337307D01*
X3596131Y2321560D01*
X3596131Y2295652D01*
X3590797Y2280157D01*
X3585718Y2269744D01*
X3575304Y2259329D01*
X3559809Y2254250D01*
X3523234Y2254250D01*
X3640836Y2363215D02*
G01*
X3697986Y2363215D01*
X3666743Y2321560D01*
X3682238Y2321560D01*
X3692652Y2316479D01*
X3697986Y2311400D01*
X3703065Y2295652D01*
X3703065Y2285237D01*
X3697986Y2269744D01*
X3687572Y2259329D01*
X3671824Y2254250D01*
X3656329Y2254250D01*
X3640836Y2259329D01*
X3635502Y2264410D01*
X3630422Y2274823D01*
X3488943Y2601721D02*
G01*
X3478529Y2612136D01*
X3463036Y2617215D01*
X3442208Y2617215D01*
X3426713Y2612136D01*
X3416300Y2601721D01*
X3416300Y2591307D01*
X3421379Y2580894D01*
X3426713Y2575560D01*
X3437127Y2570479D01*
X3468370Y2560065D01*
X3478529Y2554986D01*
X3483863Y2549652D01*
X3488943Y2539237D01*
X3488943Y2523744D01*
X3478529Y2513329D01*
X3463036Y2508250D01*
X3442208Y2508250D01*
X3426713Y2513329D01*
X3416300Y2523744D01*
X3601211Y2591307D02*
G01*
X3596131Y2601721D01*
X3585718Y2612136D01*
X3575304Y2617215D01*
X3554475Y2617215D01*
X3544061Y2612136D01*
X3533647Y2601721D01*
X3528568Y2591307D01*
X3523234Y2575560D01*
X3523234Y2549652D01*
X3528568Y2534157D01*
X3533647Y2523744D01*
X3544061Y2513329D01*
X3554475Y2508250D01*
X3575304Y2508250D01*
X3585718Y2513329D01*
X3596131Y2523744D01*
X3601211Y2534157D01*
X3645915Y2617215D02*
G01*
X3703065Y2617215D01*
X3671824Y2575560D01*
X3687572Y2575560D01*
X3697986Y2570479D01*
X3703065Y2565400D01*
X3708400Y2549652D01*
X3708400Y2539237D01*
X3703065Y2523744D01*
X3692652Y2513329D01*
X3677158Y2508250D01*
X3661409Y2508250D01*
X3645915Y2513329D01*
X3640836Y2518410D01*
X3635502Y2528823D01*
X3488943Y2855721D02*
G01*
X3478529Y2866136D01*
X3463036Y2871215D01*
X3442208Y2871215D01*
X3426713Y2866136D01*
X3416300Y2855721D01*
X3416300Y2845307D01*
X3421379Y2834894D01*
X3426713Y2829560D01*
X3437127Y2824479D01*
X3468370Y2814065D01*
X3478529Y2808986D01*
X3483863Y2803652D01*
X3488943Y2793237D01*
X3488943Y2777744D01*
X3478529Y2767329D01*
X3463036Y2762250D01*
X3442208Y2762250D01*
X3426713Y2767329D01*
X3416300Y2777744D01*
X3523234Y2871215D02*
G01*
X3523234Y2762250D01*
X3523234Y2871215D02*
G01*
X3559809Y2871215D01*
X3575304Y2866136D01*
X3585718Y2855721D01*
X3590797Y2845307D01*
X3596131Y2829560D01*
X3596131Y2803652D01*
X3590797Y2788157D01*
X3585718Y2777744D01*
X3575304Y2767329D01*
X3559809Y2762250D01*
X3523234Y2762250D01*
X3682238Y2871215D02*
G01*
X3630422Y2798571D01*
X3708400Y2798571D01*
X3682238Y2871215D02*
G01*
X3682238Y2762250D01*
X3488943Y3109721D02*
G01*
X3478529Y3120136D01*
X3463036Y3125215D01*
X3442208Y3125215D01*
X3426713Y3120136D01*
X3416300Y3109721D01*
X3416300Y3099307D01*
X3421379Y3088894D01*
X3426713Y3083560D01*
X3437127Y3078479D01*
X3468370Y3068065D01*
X3478529Y3062986D01*
X3483863Y3057652D01*
X3488943Y3047237D01*
X3488943Y3031744D01*
X3478529Y3021329D01*
X3463036Y3016250D01*
X3442208Y3016250D01*
X3426713Y3021329D01*
X3416300Y3031744D01*
X3601211Y3099307D02*
G01*
X3596131Y3109721D01*
X3585718Y3120136D01*
X3575304Y3125215D01*
X3554475Y3125215D01*
X3544061Y3120136D01*
X3533647Y3109721D01*
X3528568Y3099307D01*
X3523234Y3083560D01*
X3523234Y3057652D01*
X3528568Y3042157D01*
X3533647Y3031744D01*
X3544061Y3021329D01*
X3554475Y3016250D01*
X3575304Y3016250D01*
X3585718Y3021329D01*
X3596131Y3031744D01*
X3601211Y3042157D01*
X3687572Y3125215D02*
G01*
X3635502Y3052571D01*
X3713479Y3052571D01*
X3687572Y3125215D02*
G01*
X3687572Y3016250D01*
X3488943Y3363721D02*
G01*
X3478529Y3374136D01*
X3463036Y3379215D01*
X3442208Y3379215D01*
X3426713Y3374136D01*
X3416300Y3363721D01*
X3416300Y3353307D01*
X3421379Y3342894D01*
X3426713Y3337560D01*
X3437127Y3332479D01*
X3468370Y3322065D01*
X3478529Y3316986D01*
X3483863Y3311652D01*
X3488943Y3301237D01*
X3488943Y3285744D01*
X3478529Y3275329D01*
X3463036Y3270250D01*
X3442208Y3270250D01*
X3426713Y3275329D01*
X3416300Y3285744D01*
X3523234Y3379215D02*
G01*
X3523234Y3270250D01*
X3523234Y3379215D02*
G01*
X3559809Y3379215D01*
X3575304Y3374136D01*
X3585718Y3363721D01*
X3590797Y3353307D01*
X3596131Y3337560D01*
X3596131Y3311652D01*
X3590797Y3296157D01*
X3585718Y3285744D01*
X3575304Y3275329D01*
X3559809Y3270250D01*
X3523234Y3270250D01*
X3692652Y3379215D02*
G01*
X3640836Y3379215D01*
X3635502Y3332479D01*
X3640836Y3337560D01*
X3656329Y3342894D01*
X3671824Y3342894D01*
X3687572Y3337560D01*
X3697986Y3327400D01*
X3703065Y3311652D01*
X3703065Y3301237D01*
X3697986Y3285744D01*
X3687572Y3275329D01*
X3671824Y3270250D01*
X3656329Y3270250D01*
X3640836Y3275329D01*
X3635502Y3280410D01*
X3630422Y3290823D01*
X3488943Y3617721D02*
G01*
X3478529Y3628136D01*
X3463036Y3633215D01*
X3442208Y3633215D01*
X3426713Y3628136D01*
X3416300Y3617721D01*
X3416300Y3607307D01*
X3421379Y3596894D01*
X3426713Y3591560D01*
X3437127Y3586479D01*
X3468370Y3576065D01*
X3478529Y3570986D01*
X3483863Y3565652D01*
X3488943Y3555237D01*
X3488943Y3539744D01*
X3478529Y3529329D01*
X3463036Y3524250D01*
X3442208Y3524250D01*
X3426713Y3529329D01*
X3416300Y3539744D01*
X3601211Y3607307D02*
G01*
X3596131Y3617721D01*
X3585718Y3628136D01*
X3575304Y3633215D01*
X3554475Y3633215D01*
X3544061Y3628136D01*
X3533647Y3617721D01*
X3528568Y3607307D01*
X3523234Y3591560D01*
X3523234Y3565652D01*
X3528568Y3550157D01*
X3533647Y3539744D01*
X3544061Y3529329D01*
X3554475Y3524250D01*
X3575304Y3524250D01*
X3585718Y3529329D01*
X3596131Y3539744D01*
X3601211Y3550157D01*
X3697986Y3633215D02*
G01*
X3645915Y3633215D01*
X3640836Y3586479D01*
X3645915Y3591560D01*
X3661409Y3596894D01*
X3677158Y3596894D01*
X3692652Y3591560D01*
X3703065Y3581400D01*
X3708400Y3565652D01*
X3708400Y3555237D01*
X3703065Y3539744D01*
X3692652Y3529329D01*
X3677158Y3524250D01*
X3661409Y3524250D01*
X3645915Y3529329D01*
X3640836Y3534410D01*
X3635502Y3544823D01*
X3501643Y3871721D02*
G01*
X3491229Y3882136D01*
X3475736Y3887215D01*
X3454908Y3887215D01*
X3439413Y3882136D01*
X3429000Y3871721D01*
X3429000Y3861307D01*
X3434079Y3850894D01*
X3439413Y3845560D01*
X3449827Y3840479D01*
X3481070Y3830065D01*
X3491229Y3824986D01*
X3496563Y3819652D01*
X3501643Y3809237D01*
X3501643Y3793744D01*
X3491229Y3783329D01*
X3475736Y3778250D01*
X3454908Y3778250D01*
X3439413Y3783329D01*
X3429000Y3793744D01*
X3535934Y3887215D02*
G01*
X3535934Y3778250D01*
X3535934Y3887215D02*
G01*
X3572509Y3887215D01*
X3588004Y3882136D01*
X3598418Y3871721D01*
X3603497Y3861307D01*
X3608831Y3845560D01*
X3608831Y3819652D01*
X3603497Y3804157D01*
X3598418Y3793744D01*
X3588004Y3783329D01*
X3572509Y3778250D01*
X3535934Y3778250D01*
X3705352Y3871721D02*
G01*
X3700272Y3882136D01*
X3684524Y3887215D01*
X3674109Y3887215D01*
X3658615Y3882136D01*
X3648202Y3866387D01*
X3643122Y3840479D01*
X3643122Y3814571D01*
X3648202Y3793744D01*
X3658615Y3783329D01*
X3674109Y3778250D01*
X3679443Y3778250D01*
X3694938Y3783329D01*
X3705352Y3793744D01*
X3710686Y3809237D01*
X3710686Y3814571D01*
X3705352Y3830065D01*
X3694938Y3840479D01*
X3679443Y3845560D01*
X3674109Y3845560D01*
X3658615Y3840479D01*
X3648202Y3830065D01*
X3643122Y3814571D01*
X3488943Y4125721D02*
G01*
X3478529Y4136136D01*
X3463036Y4141215D01*
X3442208Y4141215D01*
X3426713Y4136136D01*
X3416300Y4125721D01*
X3416300Y4115307D01*
X3421379Y4104894D01*
X3426713Y4099560D01*
X3437127Y4094479D01*
X3468370Y4084065D01*
X3478529Y4078986D01*
X3483863Y4073652D01*
X3488943Y4063237D01*
X3488943Y4047744D01*
X3478529Y4037329D01*
X3463036Y4032250D01*
X3442208Y4032250D01*
X3426713Y4037329D01*
X3416300Y4047744D01*
X3601211Y4115307D02*
G01*
X3596131Y4125721D01*
X3585718Y4136136D01*
X3575304Y4141215D01*
X3554475Y4141215D01*
X3544061Y4136136D01*
X3533647Y4125721D01*
X3528568Y4115307D01*
X3523234Y4099560D01*
X3523234Y4073652D01*
X3528568Y4058157D01*
X3533647Y4047744D01*
X3544061Y4037329D01*
X3554475Y4032250D01*
X3575304Y4032250D01*
X3585718Y4037329D01*
X3596131Y4047744D01*
X3601211Y4058157D01*
X3697986Y4125721D02*
G01*
X3692652Y4136136D01*
X3677158Y4141215D01*
X3666743Y4141215D01*
X3651250Y4136136D01*
X3640836Y4120387D01*
X3635502Y4094479D01*
X3635502Y4068571D01*
X3640836Y4047744D01*
X3651250Y4037329D01*
X3666743Y4032250D01*
X3671824Y4032250D01*
X3687572Y4037329D01*
X3697986Y4047744D01*
X3703065Y4063237D01*
X3703065Y4068571D01*
X3697986Y4084065D01*
X3687572Y4094479D01*
X3671824Y4099560D01*
X3666743Y4099560D01*
X3651250Y4094479D01*
X3640836Y4084065D01*
X3635502Y4068571D01*
X3488943Y4379721D02*
G01*
X3478529Y4390136D01*
X3463036Y4395215D01*
X3442208Y4395215D01*
X3426713Y4390136D01*
X3416300Y4379721D01*
X3416300Y4369307D01*
X3421379Y4358894D01*
X3426713Y4353560D01*
X3437127Y4348479D01*
X3468370Y4338065D01*
X3478529Y4332986D01*
X3483863Y4327652D01*
X3488943Y4317237D01*
X3488943Y4301744D01*
X3478529Y4291329D01*
X3463036Y4286250D01*
X3442208Y4286250D01*
X3426713Y4291329D01*
X3416300Y4301744D01*
X3523234Y4395215D02*
G01*
X3523234Y4286250D01*
X3523234Y4395215D02*
G01*
X3559809Y4395215D01*
X3575304Y4390136D01*
X3585718Y4379721D01*
X3590797Y4369307D01*
X3596131Y4353560D01*
X3596131Y4327652D01*
X3590797Y4312157D01*
X3585718Y4301744D01*
X3575304Y4291329D01*
X3559809Y4286250D01*
X3523234Y4286250D01*
X3703065Y4395215D02*
G01*
X3651250Y4286250D01*
X3630422Y4395215D02*
G01*
X3703065Y4395215D01*
X3476243Y4633721D02*
G01*
X3465829Y4644136D01*
X3450336Y4649215D01*
X3429508Y4649215D01*
X3414013Y4644136D01*
X3403600Y4633721D01*
X3403600Y4623307D01*
X3408679Y4612894D01*
X3414013Y4607560D01*
X3424427Y4602479D01*
X3455670Y4592065D01*
X3465829Y4586986D01*
X3471163Y4581652D01*
X3476243Y4571237D01*
X3476243Y4555744D01*
X3465829Y4545329D01*
X3450336Y4540250D01*
X3429508Y4540250D01*
X3414013Y4545329D01*
X3403600Y4555744D01*
X3588511Y4623307D02*
G01*
X3583431Y4633721D01*
X3573018Y4644136D01*
X3562604Y4649215D01*
X3541775Y4649215D01*
X3531361Y4644136D01*
X3520947Y4633721D01*
X3515868Y4623307D01*
X3510534Y4607560D01*
X3510534Y4581652D01*
X3515868Y4566157D01*
X3520947Y4555744D01*
X3531361Y4545329D01*
X3541775Y4540250D01*
X3562604Y4540250D01*
X3573018Y4545329D01*
X3583431Y4555744D01*
X3588511Y4566157D01*
X3695700Y4649215D02*
G01*
X3643629Y4540250D01*
X3622802Y4649215D02*
G01*
X3695700Y4649215D01*
X2550922Y4217415D02*
G01*
X2550922Y4108450D01*
X2514600Y4217415D02*
G01*
X2587243Y4217415D01*
X2699511Y4191507D02*
G01*
X2694431Y4201921D01*
X2684018Y4212336D01*
X2673604Y4217415D01*
X2652775Y4217415D01*
X2642361Y4212336D01*
X2631947Y4201921D01*
X2626868Y4191507D01*
X2621534Y4175760D01*
X2621534Y4149852D01*
X2626868Y4134357D01*
X2631947Y4123944D01*
X2642361Y4113529D01*
X2652775Y4108450D01*
X2673604Y4108450D01*
X2684018Y4113529D01*
X2694431Y4123944D01*
X2699511Y4134357D01*
X2775458Y4217415D02*
G01*
X2733802Y4108450D01*
X2775458Y4217415D02*
G01*
X2816859Y4108450D01*
X2749550Y4144771D02*
G01*
X2801365Y4144771D01*
X2918713Y4181094D02*
G01*
X2913634Y4165600D01*
X2903220Y4155186D01*
X2887725Y4149852D01*
X2882391Y4149852D01*
X2866897Y4155186D01*
X2856484Y4165600D01*
X2851150Y4181094D01*
X2851150Y4186173D01*
X2856484Y4201921D01*
X2866897Y4212336D01*
X2882391Y4217415D01*
X2887725Y4217415D01*
X2903220Y4212336D01*
X2913634Y4201921D01*
X2918713Y4181094D01*
X2918713Y4155186D01*
X2913634Y4129023D01*
X2903220Y4113529D01*
X2887725Y4108450D01*
X2877311Y4108450D01*
X2861563Y4113529D01*
X2856484Y4123944D01*
X3015488Y4217415D02*
G01*
X2963418Y4217415D01*
X2958338Y4170679D01*
X2963418Y4175760D01*
X2979165Y4181094D01*
X2994659Y4181094D01*
X3010154Y4175760D01*
X3020568Y4165600D01*
X3025902Y4149852D01*
X3025902Y4139437D01*
X3020568Y4123944D01*
X3010154Y4113529D01*
X2994659Y4108450D01*
X2979165Y4108450D01*
X2963418Y4113529D01*
X2958338Y4118610D01*
X2953004Y4129023D01*
X3112008Y4217415D02*
G01*
X3060191Y4144771D01*
X3138170Y4144771D01*
X3112008Y4217415D02*
G01*
X3112008Y4108450D01*
X3198368Y4217415D02*
G01*
X3182620Y4212336D01*
X3177540Y4201921D01*
X3177540Y4191507D01*
X3182620Y4181094D01*
X3193034Y4175760D01*
X3213861Y4170679D01*
X3229609Y4165600D01*
X3239770Y4155186D01*
X3245104Y4144771D01*
X3245104Y4129023D01*
X3239770Y4118610D01*
X3234690Y4113529D01*
X3219195Y4108450D01*
X3198368Y4108450D01*
X3182620Y4113529D01*
X3177540Y4118610D01*
X3172459Y4129023D01*
X3172459Y4144771D01*
X3177540Y4155186D01*
X3187954Y4165600D01*
X3203447Y4170679D01*
X3224275Y4175760D01*
X3234690Y4181094D01*
X3239770Y4191507D01*
X3239770Y4201921D01*
X3234690Y4212336D01*
X3219195Y4217415D01*
X3198368Y4217415D01*
X3321050Y4217415D02*
G01*
X3279393Y4108450D01*
X3321050Y4217415D02*
G01*
X3362452Y4108450D01*
X3294888Y4144771D02*
G01*
X3346958Y4144771D01*
X2770377Y2337307D02*
G01*
X2765043Y2347721D01*
X2754629Y2358136D01*
X2744470Y2363215D01*
X2723641Y2363215D01*
X2713227Y2358136D01*
X2702813Y2347721D01*
X2697479Y2337307D01*
X2692400Y2321560D01*
X2692400Y2295652D01*
X2697479Y2280157D01*
X2702813Y2269744D01*
X2713227Y2259329D01*
X2723641Y2254250D01*
X2744470Y2254250D01*
X2754629Y2259329D01*
X2765043Y2269744D01*
X2770377Y2280157D01*
X2856484Y2363215D02*
G01*
X2856484Y2280157D01*
X2851404Y2264410D01*
X2846070Y2259329D01*
X2835909Y2254250D01*
X2825495Y2254250D01*
X2815081Y2259329D01*
X2809747Y2264410D01*
X2804668Y2280157D01*
X2804668Y2290571D01*
X2890774Y2363215D02*
G01*
X2890774Y2254250D01*
X2890774Y2363215D02*
G01*
X2932429Y2254250D01*
X2974086Y2363215D02*
G01*
X2932429Y2254250D01*
X2974086Y2363215D02*
G01*
X2974086Y2254250D01*
X3086100Y2337307D02*
G01*
X3081020Y2347721D01*
X3070606Y2358136D01*
X3060191Y2363215D01*
X3039363Y2363215D01*
X3028950Y2358136D01*
X3018790Y2347721D01*
X3013456Y2337307D01*
X3008375Y2321560D01*
X3008375Y2295652D01*
X3013456Y2280157D01*
X3018790Y2269744D01*
X3028950Y2259329D01*
X3039363Y2254250D01*
X3060191Y2254250D01*
X3070606Y2259329D01*
X3081020Y2269744D01*
X3086100Y2280157D01*
X3120390Y2363215D02*
G01*
X3120390Y2285237D01*
X3125724Y2269744D01*
X3136138Y2259329D01*
X3151631Y2254250D01*
X3162045Y2254250D01*
X3177540Y2259329D01*
X3187954Y2269744D01*
X3193288Y2285237D01*
X3193288Y2363215D01*
X2226056Y3137915D02*
G01*
X2184400Y3028950D01*
X2226056Y3137915D02*
G01*
X2267458Y3028950D01*
X2199893Y3065271D02*
G01*
X2251963Y3065271D01*
X2301747Y3117087D02*
G01*
X2312161Y3122421D01*
X2327909Y3137915D01*
X2327909Y3028950D01*
X1308100Y469900D02*
G01*
X1308100Y660400D01*
X1054100Y660400D01*
X1054100Y-609600D01*
X1308100Y-609600D01*
D13*
X1308100Y-609600D02*
G01*
X1308100Y469900D01*
D11*
X3568700Y-990600D02*
G01*
X3378200Y-990600D01*
X3378200Y-1244600D01*
X4140200Y-1244600D01*
X4140200Y-990600D01*
D13*
X4140200Y-990600D02*
G01*
X3568700Y-990600D01*
D11*
X1714500Y-838200D02*
G01*
X1524000Y-838200D01*
X1524000Y-1092200D01*
X2794000Y-1092200D01*
X2794000Y-838200D01*
D13*
X2794000Y-838200D02*
G01*
X1714500Y-838200D01*
D11*
X1295400Y4597400D02*
G01*
X1295400Y4787900D01*
X1041400Y4787900D01*
X1041400Y977900D01*
X1295400Y977900D01*
D13*
X1295400Y977900D02*
G01*
X1295400Y4597400D01*
D14*
X4572000Y3403600D02*
G01*
X6052007Y3403600D01*
X6052007Y2053589D01*
X4572000Y2053589D01*
X4572000Y3403600D01*
X6134100Y1905000D02*
G01*
X6134100Y393700D01*
X4610100Y393700D01*
X4610100Y1905000D01*
X6134100Y1905000D01*
X5365292Y-880998D02*
G01*
X5365292Y118998D01*
X4750866Y-881532D02*
G01*
X4733500Y-921004D01*
X4833500Y-921004D01*
X4813808Y-881532D01*
X4683500Y-880998D02*
G01*
X4683500Y118998D01*
X4683500Y-880998D02*
G01*
X5443499Y-880998D01*
X4683500Y118998D02*
G01*
X5443499Y118998D01*
X5443499Y-880998D02*
G01*
X5443499Y118998D01*
X4903419Y-880998D02*
G01*
X4903419Y118998D01*
X1959902Y-334797D02*
G01*
X1959902Y1265199D01*
X4059897Y-334797D02*
G01*
X1959902Y-334797D01*
X4059897Y1265199D02*
G01*
X4059897Y-334797D01*
X1959902Y1265199D02*
G01*
X4059897Y1265199D01*
D11*
X3285637Y417342D02*
G01*
X3335637Y467354D01*
X3285637Y417342D02*
G01*
X3335637Y367355D01*
X3285637Y417342D02*
G01*
X3585624Y417342D01*
X3585624Y117340D02*
G01*
X3535624Y167342D01*
X3585624Y117340D02*
G01*
X3635626Y167342D01*
X3585624Y117340D02*
G01*
X3585624Y417342D01*
X2775864Y447553D02*
G01*
X2775864Y507555D01*
X2875851Y447553D02*
G01*
X2875851Y507555D01*
X2975851Y447553D02*
G01*
X2975851Y507555D01*
X3075851Y447565D02*
G01*
X3075851Y507555D01*
X2725851Y289745D02*
G01*
X2665854Y289745D01*
X2725851Y389747D02*
G01*
X2665849Y389747D01*
X2725851Y189745D02*
G01*
X2665854Y189745D01*
X2725851Y89753D02*
G01*
X2665854Y89753D01*
X3125858Y189765D02*
G01*
X3185861Y189765D01*
X3125858Y89766D02*
G01*
X3185861Y89766D01*
X3125858Y289758D02*
G01*
X3185861Y289758D01*
X3125858Y389757D02*
G01*
X3185861Y389757D01*
X2875851Y39753D02*
G01*
X2875851Y-20248D01*
X2775864Y39753D02*
G01*
X2775864Y-20248D01*
X2975851Y39753D02*
G01*
X2975851Y-20248D01*
X3075851Y39753D02*
G01*
X3075851Y-20248D01*
D14*
X3126046Y46832D02*
G01*
X2726047Y46832D01*
X2726047Y446831D01*
X3126046Y446831D01*
X3126046Y46832D01*
X4572000Y3543300D02*
G01*
X4572000Y4660900D01*
X4572000Y4813300D01*
X4724400Y4813300D01*
X5245608Y4813300D01*
X5918200Y4813300D01*
X5918200Y3543300D01*
X4572000Y3543300D02*
G01*
X5918200Y3543300D01*
X1828800Y4787900D02*
G01*
X4025900Y4787900D01*
X4025900Y1638300D01*
X1828800Y1638300D01*
X1828800Y4787900D01*
X2768600Y3619500D02*
G01*
X3200400Y3619500D01*
X3200400Y2819400D01*
X2768600Y2819400D01*
X2768600Y3619500D01*
X2988741Y4000500D02*
G01*
X3090341Y4000500D01*
X3090341Y3771900D01*
X2988741Y3771900D01*
X2988741Y4000500D01*
X3162300Y4000500D02*
G01*
X3263900Y4000500D01*
X3263900Y3771900D01*
X3162300Y3771900D01*
X3162300Y4000500D01*
X2815158Y4000500D02*
G01*
X2916758Y4000500D01*
X2916758Y3771900D01*
X2815158Y3771900D01*
X2815158Y4000500D01*
X2641600Y4000500D02*
G01*
X2743200Y4000500D01*
X2743200Y3771900D01*
X2641600Y3771900D01*
X2641600Y4000500D01*
X2654300Y2692400D02*
G01*
X2755900Y2692400D01*
X2755900Y2463800D01*
X2654300Y2463800D01*
X2654300Y2692400D01*
X2901950Y2692400D02*
G01*
X3003550Y2692400D01*
X3003550Y2463800D01*
X2901950Y2463800D01*
X2901950Y2692400D01*
X3149600Y2692400D02*
G01*
X3251200Y2692400D01*
X3251200Y2463800D01*
X3149600Y2463800D01*
X3149600Y2692400D01*
G75*
G01
X4766488Y1686992D02*
G03X4766488Y1686992I-30201J0D01*
G75*
G01
X5791200Y4559300D02*
G03X5791200Y4559300I-152400J0D01*
M02*
