M48
METRIC,LZ,000.000
;FILE_FORMAT=3:3
;TYPE=PLATED
;Layer: PTH_Through
;EasyEDA v6.5.40, 2025-04-08 18:07:50
;818aaf958c86489cb54930f66178348c,9a3801b0f1a945d2957c124233de6e5e,10
;Gerber Generator version 0.2
;Holesize 1 = 0.889 mm
T01C0.889
%
G05
G90
T01
X009398Y024003
X009398Y026543
X009398Y029083
X025527Y049276
X022987Y049276
X020447Y049276
X047752Y052197
X045212Y052197
X042672Y052197
X047752Y048768
X045212Y048768
X042672Y048768
X039370Y041783
X039370Y039243
X039370Y036703
X039370Y034163
X039370Y031623
X039370Y029083
X039370Y026543
X039370Y024003
X039370Y021463
X039370Y018923
X039370Y016383
X039370Y013843
X039370Y011303
X039370Y008763
X039370Y006223
X039370Y003683
X039370Y001143
X039370Y-001397
X039370Y-003937
X039370Y-006477
X013970Y-006477
X013970Y-003937
X013970Y-001397
X013970Y001143
X013970Y003683
X013970Y006223
X013970Y008763
X013970Y011303
X013970Y013843
X013970Y016383
X013970Y018923
X013970Y021463
X013970Y024003
X013970Y026543
X013970Y029083
X013970Y031623
X013970Y034163
X013970Y036703
X013970Y039243
X013970Y041783
X009398Y031623
X009398Y034163
X009398Y036703
X049530Y-006477
X049530Y-003937
X049530Y-001397
X049530Y001143
X049530Y003683
X049530Y006223
X049530Y008763
X049530Y011303
X049530Y013843
X049530Y016383
X049530Y018923
X049530Y021463
X049530Y024003
X049530Y026543
X049530Y029083
X023114Y-005080
X030480Y-005334
X022860Y024003
X027813Y028575
X022987Y016510
X030480Y022733
X024130Y039116
X027940Y039116
X022987Y044577
X027940Y044577
X020193Y039116
X020193Y044196
X045212Y-003937
X045339Y-008509
M30
