G04 Layer: TopLayer*
G04 EasyEDA v6.5.40, 2025-04-08 18:07:50*
G04 818aaf958c86489cb54930f66178348c,9a3801b0f1a945d2957c124233de6e5e,10*
G04 Gerber Generator version 0.2*
G04 Scale: 100 percent, Rotated: No, Reflected: No *
G04 Dimensions in millimeters *
G04 leading zeros omitted , absolute positions ,4 integer and 5 decimal *
%FSLAX45Y45*%
%MOMM*%

%ADD10C,1.5748*%
%ADD11R,1.5748X1.5748*%

%LPD*%
D10*
G01*
X939800Y2400300D03*
G01*
X939800Y2654300D03*
D11*
G01*
X939800Y2908300D03*
D10*
G01*
X2552700Y4927600D03*
G01*
X2298700Y4927600D03*
D11*
G01*
X2044700Y4927600D03*
D10*
G01*
X4775200Y5219700D03*
G01*
X4521200Y5219700D03*
D11*
G01*
X4267200Y5219700D03*
D10*
G01*
X4775200Y4876800D03*
G01*
X4521200Y4876800D03*
D11*
G01*
X4267200Y4876800D03*
D10*
G01*
X3937000Y4178300D03*
G01*
X3937000Y3924300D03*
G01*
X3937000Y3670300D03*
G01*
X3937000Y3416300D03*
G01*
X3937000Y3162300D03*
G01*
X3937000Y2908300D03*
G01*
X3937000Y2654300D03*
G01*
X3937000Y2400300D03*
G01*
X3937000Y2146300D03*
G01*
X3937000Y1892300D03*
G01*
X3937000Y1638300D03*
G01*
X3937000Y1384300D03*
G01*
X3937000Y1130300D03*
G01*
X3937000Y876300D03*
G01*
X3937000Y622300D03*
G01*
X3937000Y368300D03*
G01*
X3937000Y114300D03*
G01*
X3937000Y-139700D03*
G01*
X3937000Y-393700D03*
D11*
G01*
X3937000Y-647700D03*
D10*
G01*
X1397000Y-647700D03*
G01*
X1397000Y-393700D03*
G01*
X1397000Y-139700D03*
G01*
X1397000Y114300D03*
G01*
X1397000Y368300D03*
G01*
X1397000Y622300D03*
G01*
X1397000Y876300D03*
G01*
X1397000Y1130300D03*
G01*
X1397000Y1384300D03*
G01*
X1397000Y1638300D03*
G01*
X1397000Y1892300D03*
G01*
X1397000Y2146300D03*
G01*
X1397000Y2400300D03*
G01*
X1397000Y2654300D03*
G01*
X1397000Y2908300D03*
G01*
X1397000Y3162300D03*
G01*
X1397000Y3416300D03*
G01*
X1397000Y3670300D03*
G01*
X1397000Y3924300D03*
D11*
G01*
X1397000Y4178300D03*
D10*
G01*
X939800Y3162300D03*
G01*
X939800Y3416300D03*
D11*
G01*
X939800Y3670300D03*
D10*
G01*
X4953000Y-647700D03*
G01*
X4953000Y-393700D03*
G01*
X4953000Y-139700D03*
G01*
X4953000Y114300D03*
G01*
X4953000Y368300D03*
G01*
X4953000Y622300D03*
G01*
X4953000Y876300D03*
G01*
X4953000Y1130300D03*
G01*
X4953000Y1384300D03*
G01*
X4953000Y1638300D03*
G01*
X4953000Y1892300D03*
G01*
X4953000Y2146300D03*
G01*
X4953000Y2400300D03*
G01*
X4953000Y2654300D03*
D11*
G01*
X4953000Y2908300D03*
D10*
G01*
X2311400Y-508000D03*
G01*
X3048000Y-533400D03*
G01*
X2286000Y2400300D03*
G01*
X2781300Y2857500D03*
G01*
X2298700Y1651000D03*
G01*
X3048000Y2273300D03*
G01*
X2413000Y3911600D03*
G01*
X2794000Y3911600D03*
G01*
X2298700Y4457700D03*
G01*
X2794000Y4457700D03*
G01*
X2019300Y3911600D03*
G01*
X2019300Y4419600D03*
G01*
X4521200Y-393700D03*
G01*
X4533900Y-850900D03*
M02*
